<?xml version="1.0" encoding="utf-8"?>
<!-- Generator: Adobe Illustrator 19.1.0, SVG Export Plug-In . SVG Version: 6.00 Build 0)  -->
<svg version="1.1" id="Layer_1" xmlns="http://www.w3.org/2000/svg" xmlns:xlink="http://www.w3.org/1999/xlink" x="0px" y="0px"
	 viewBox="0 0 1200 360" style="enable-background:new 0 0 1200 360;" xml:space="preserve">
<style type="text/css">
	.st0{opacity:0.2;}
	.st1{fill:none;stroke:#000000;stroke-width:1.93;stroke-miterlimit:10;}
	.st2{fill:none;stroke:#000000;stroke-width:1.93;stroke-linecap:round;stroke-miterlimit:10;}
</style>
<g class="st0">
	<g>
		<g>
			<g>
				<path class="st1" d="M17,58v-3.5C17,29.8,37,9.8,61.6,9.8h3.5c3.5,0,6.3,2.8,6.3,6.3v3.5c0,24.6-20,44.6-44.6,44.6h-3.5
					C19.8,64.2,17,61.4,17,58z"/>
				<line class="st2" x1="46.2" y1="17.6" x2="53" y2="24.4"/>
				<line class="st2" x1="21.9" y1="45.8" x2="28.7" y2="52.6"/>
				<line class="st2" x1="35.5" y1="24.4" x2="42.3" y2="31.2"/>
				<line class="st2" x1="24.8" y1="39.9" x2="31.6" y2="46.7"/>
				<line class="st2" x1="31.6" y1="29.3" x2="38.4" y2="36.1"/>
				<line class="st2" x1="40.3" y1="20.5" x2="47.1" y2="27.3"/>
				<line class="st2" x1="27.7" y1="34.1" x2="34.5" y2="40.9"/>
				<path class="st1" d="M70.2,12.4c-26.8,7.9-39.9,16.2-49.7,51.2"/>
			</g>
			<g>
				<circle class="st1" cx="1155.8" cy="38.5" r="27.2"/>
				<path class="st1" d="M1169.4,38.5c0,6.9,2.6,13.2,6.8,18c4.2-4.8,6.8-11.1,6.8-18s-2.6-13.2-6.8-18
					C1172,25.3,1169.4,31.6,1169.4,38.5z"/>
				<path class="st1" d="M1128.6,38.5c0,6.9,2.6,13.2,6.8,18c4.2-4.8,6.8-11.1,6.8-18s-2.6-13.2-6.8-18
					C1131.2,25.3,1128.6,31.6,1128.6,38.5z"/>
				<line class="st2" x1="1139.3" y1="38.5" x2="1145.1" y2="38.5"/>
				<line class="st2" x1="1138.3" y1="43.4" x2="1145.1" y2="44.3"/>
				<line class="st2" x1="1138.3" y1="33.6" x2="1145.1" y2="32.7"/>
				<line class="st2" x1="1137.3" y1="28.8" x2="1143.2" y2="26.8"/>
				<line class="st2" x1="1137.3" y1="48.2" x2="1143.2" y2="50.2"/>
				<line class="st2" x1="1139.3" y1="38.5" x2="1145.1" y2="38.5"/>
				<line class="st2" x1="1138.3" y1="43.4" x2="1145.1" y2="44.3"/>
				<line class="st2" x1="1138.3" y1="33.6" x2="1145.1" y2="32.7"/>
				<line class="st2" x1="1137.3" y1="28.8" x2="1143.2" y2="26.8"/>
				<line class="st2" x1="1137.3" y1="48.2" x2="1143.2" y2="50.2"/>
				<line class="st2" x1="1172.3" y1="38.5" x2="1166.5" y2="38.5"/>
				<line class="st2" x1="1173.3" y1="33.6" x2="1166.5" y2="32.7"/>
				<line class="st2" x1="1173.3" y1="43.4" x2="1166.5" y2="44.3"/>
				<line class="st2" x1="1174.3" y1="48.2" x2="1168.4" y2="50.2"/>
				<line class="st2" x1="1174.3" y1="28.8" x2="1168.4" y2="26.8"/>
			</g>
			<g>
				<circle class="st1" cx="679.4" cy="37" r="27.2"/>
				<path class="st1" d="M679.4,37l0.5,0.7c5.7,6.9,9.1,15.2,10.2,24.4h0.1"/>
				<path class="st1" d="M679.4,37c1.3-13.2,5.8-16.9,12-24.4"/>
				<path class="st1" d="M668.5,39c1.5-15.4,6.1-20.3,13.3-29"/>
				<path class="st1" d="M659.8,38.5c1.5-15.4,5.4-19,12.6-27.8"/>
				<path class="st1" d="M679.4,37c-8.6,3-18.4,2.2-27.2,0"/>
				<path class="st1" d="M681.9,26.1c12.4,8.1,16.5,17.7,16.4,30.6"/>
				<path class="st1" d="M686.4,18.6c12.2,5.9,16,14.6,18.6,27.5"/>
				<path class="st1" d="M684.2,43.8c-14.2,6-20.2,5.7-30.9,0.7"/>
				<path class="st1" d="M688,52.6c-13,5.3-18.4,4.7-29.4,1.9"/>
			</g>
			<g>
				<circle class="st1" cx="201.1" cy="54" r="11.7"/>
				<circle class="st1" cx="201.1" cy="51.1" r="14.6"/>
				<path class="st1" d="M181.6,29.7v17.5v-1c0,10.7,8.7,19.4,19.4,19.4c12.9,0,23.3-10.4,23.3-23.3v-6.8v1v-6.8"/>
				<path class="st1" d="M229.2,13.2V13c0-0.9-0.8-1.7-1.7-1.7h-6.3c-0.9,0-1.7,0.8-1.7,1.7v0.2c0,1.1,0.9,1.9,1.9,1.9l0,0v10.7l0,0
					c-1.1,0-1.9,0.9-1.9,1.9v0.4c0,0.8,0.7,1.5,1.5,1.5h6.7c0.8,0,1.5-0.7,1.5-1.5v-0.4c0-1.1-0.9-1.9-1.9-1.9l0,0V15.2l0,0
					C228.4,15.2,229.2,14.3,229.2,13.2z"/>
				<circle cx="222.4" cy="16.1" r="1"/>
				<circle cx="226.3" cy="16.1" r="1"/>
				<circle cx="224.4" cy="18.1" r="1"/>
				<circle cx="222.4" cy="20" r="1"/>
				<circle cx="226.3" cy="20" r="1"/>
				<circle cx="224.4" cy="22" r="1"/>
				<circle cx="222.4" cy="23.9" r="1"/>
				<circle cx="226.3" cy="23.9" r="1"/>
				<circle cx="224.4" cy="25.9" r="1"/>
				<path class="st1" d="M186.5,13.2V13c0-0.9-0.8-1.7-1.7-1.7h-6.3c-0.9,0-1.7,0.8-1.7,1.7v0.2c0,1.1,0.9,1.9,1.9,1.9l0,0v10.7l0,0
					c-1.1,0-1.9,0.9-1.9,1.9v0.4c0,0.8,0.7,1.5,1.5,1.5h6.7c0.8,0,1.5-0.7,1.5-1.5v-0.4c0-1.1-0.9-1.9-1.9-1.9l0,0V15.2l0,0
					C185.6,15.2,186.5,14.3,186.5,13.2z"/>
				<circle cx="179.7" cy="16.1" r="1"/>
				<circle cx="183.6" cy="16.1" r="1"/>
				<circle cx="181.6" cy="18.1" r="1"/>
				<circle cx="179.7" cy="20" r="1"/>
				<circle cx="183.6" cy="20" r="1"/>
				<circle cx="181.6" cy="22" r="1"/>
				<circle cx="179.7" cy="23.9" r="1"/>
				<circle cx="183.6" cy="23.9" r="1"/>
				<circle cx="181.6" cy="25.9" r="1"/>
			</g>
			<g>
				<path class="st2" d="M373.5,27.8l-3.9-4.3c-0.8-0.6-1.8-0.7-2.7-0.3c-4,1.7-9.3,6.8-18,9c-1.1,0.3-2.2,0.4-3.2,0.5l-7.5,0
					c-1.5-0.1-2.8,0.8-3.4,2.1v0c-0.6,1.6-0.1,3.4,1.3,4.3c0,0,0.1,0.1,0.1,0.1c4.4,2.9,9.5,4.2,14.7,3.7c3.7-0.3,9.4-1,13.7-1.7
					c2.6-0.5,5.2-0.4,7.7,0.2l5.1,1.2l0.1,0c0.1,0,0.1,0,0.2,0.1c5.5,1.7,13.3-1.3,10.7-10.5c-0.1-0.2-0.2-0.4-0.3-0.7l-2.3-6.2
					c-0.4-1.1-1.9-1.3-2.6-0.4l0,0c-1.3,1.8-3.4,3-5.5,3H373.5z"/>
				<line class="st2" x1="339.5" y1="41.1" x2="339.5" y2="44.2"/>
				<line class="st2" x1="343.3" y1="42.4" x2="343.3" y2="45.2"/>
				<line class="st2" x1="347.2" y1="45.2" x2="347.2" y2="43"/>
				<line class="st2" x1="382.2" y1="45.2" x2="382.2" y2="43"/>
				<line class="st2" x1="378.3" y1="45.3" x2="378.3" y2="42.8"/>
				<line class="st2" x1="374.4" y1="45.3" x2="374.4" y2="41.8"/>
				<line class="st2" x1="365.7" y1="32.7" x2="360.5" y2="27"/>
				<line class="st2" x1="360.8" y1="33.7" x2="356.5" y2="29.3"/>
				<line class="st2" x1="356" y1="34.6" x2="352.4" y2="31.1"/>
			</g>
			<g>
				<circle class="st2" cx="520.6" cy="42.5" r="22.7"/>
				<g>
					<g>
						<line class="st2" x1="508.1" y1="27.6" x2="511.4" y2="31.6"/>
						<line class="st2" x1="501.5" y1="39.1" x2="506.6" y2="40"/>
						<line class="st2" x1="503.7" y1="52.5" x2="508.2" y2="49.9"/>
						<line class="st2" x1="514.1" y1="61" x2="515.9" y2="56.2"/>
					</g>
					<g>
						<line class="st2" x1="520.2" y1="23.1" x2="520.2" y2="28.6"/>
						<line class="st2" x1="533.2" y1="27.6" x2="529.8" y2="31.6"/>
						<line class="st2" x1="539.7" y1="39.1" x2="534.6" y2="40"/>
						<line class="st2" x1="537.5" y1="52.5" x2="533" y2="49.9"/>
						<line class="st2" x1="527.1" y1="61" x2="525.3" y2="56.2"/>
					</g>
				</g>
				<path class="st2" d="M522,44.2c0.1,0,0.1-0.1,0.2-0.2c0.6-0.6,1-1.5,1-2.3l3.1-6.6l-6.6,3.1c-0.8,0-1.7,0.4-2.3,1
					c-0.1,0.1-0.1,0.1-0.2,0.2l0,0l0,0c-1.1,1.3-1.1,3.3,0.2,4.6C518.6,45.3,520.6,45.4,522,44.2L522,44.2L522,44.2z"/>
				<path class="st2" d="M501,27.1l-2.7-3.2c-0.6-0.7-0.7-1.7-0.2-2.1l5-4.2c0.5-0.4,1.4-0.2,2.1,0.6l2.7,3.2"/>
				<line class="st2" x1="523.9" y1="16.4" x2="523.9" y2="18.5"/>
				<line class="st2" x1="517.8" y1="18.5" x2="517.8" y2="16.4"/>
				<path class="st2" d="M540,27.1l2.7-3.2c0.6-0.7,0.7-1.7,0.2-2.1l-5-4.2c-0.5-0.4-1.4-0.2-2.1,0.6l-2.7,3.2"/>
				<path class="st2" d="M523.6,16.1h-5.5c-0.9,0-1.7-0.8-1.7-1.7v-3.1c0-0.9,0.8-1.7,1.7-1.7h5.5c0.9,0,1.7,0.8,1.7,1.7v3.1
					C525.3,15.3,524.5,16.1,523.6,16.1z"/>
			</g>
			<g>
				<path class="st1" d="M859.7,50.4c0-11.8-9.5-21.2-21.3-21.2s-21.3,9.4-21.3,21.2c0,6.4,2.8,12.2,7.2,15.9h28.1
					C856.9,62.5,859.7,56.8,859.7,50.4z"/>
				<path class="st1" d="M824.2,31.3c-0.4-1.1-0.7-2.2-0.7-3.4c0-6.9,6.8-12.4,14.5-12.4s14.5,5.6,14.5,12.4c0,1.2-0.2,2.3-0.6,3.4"
					/>
				<path class="st1" d="M857.3,35.6c1.3-2.4,2.1-5,2.1-7.8c0-10.1-9.9-18.3-21.4-18.3s-21.3,8.2-21.3,18.3c0,2.8,0.8,5.4,2.1,7.8"
					/>
			</g>
			<g>
				<g>
					<path class="st2" d="M978.2,61.4h-6.2c-1.3,0-2.3-1.1-2.3-2.3V21c0-1.3,1.1-2.3,2.3-2.3h6.2c1.3,0,2.3,1.1,2.3,2.3v38
						C980.6,60.3,979.5,61.4,978.2,61.4z"/>
					<path class="st2" d="M967.7,56.6h-5c-1.1,0-2-0.8-2-1.8V25.2c0-1,0.9-1.8,2-1.8h5"/>
					<path class="st2" d="M958.3,51.7h-2.1c-0.7,0-1.2-0.5-1.2-1V29.4c0-0.6,0.5-1,1.2-1h2.1"/>
				</g>
				<g>
					<path class="st2" d="M1015.7,61.4h6.2c1.3,0,2.3-1.1,2.3-2.3V21c0-1.3-1.1-2.3-2.3-2.3h-6.2c-1.3,0-2.3,1.1-2.3,2.3v38
						C1013.4,60.3,1014.5,61.4,1015.7,61.4z"/>
					<path class="st2" d="M1026.3,56.6h5c1.1,0,2-0.8,2-1.8V25.2c0-1-0.9-1.8-2-1.8h-5"/>
					<path class="st2" d="M1035.7,51.7h2.1c0.7,0,1.2-0.5,1.2-1V29.4c0-0.6-0.5-1-1.2-1h-2.1"/>
				</g>
				<g>
					<line class="st2" x1="983.1" y1="35.8" x2="1010.8" y2="35.8"/>
					<line class="st2" x1="1010.8" y1="44.2" x2="983.1" y2="44.2"/>
				</g>
			</g>
		</g>
		<g>
			<g>
				<path class="st1" d="M1299.8,58v-3.5c0-24.6,20-44.6,44.6-44.6h3.5c3.5,0,6.3,2.8,6.3,6.3v3.5c0,24.6-20,44.6-44.6,44.6h-3.5
					C1302.6,64.2,1299.8,61.4,1299.8,58z"/>
				<line class="st2" x1="1328.9" y1="17.6" x2="1335.7" y2="24.4"/>
				<line class="st2" x1="1304.7" y1="45.8" x2="1311.5" y2="52.6"/>
				<line class="st2" x1="1318.3" y1="24.4" x2="1325.1" y2="31.2"/>
				<line class="st2" x1="1307.6" y1="39.9" x2="1314.4" y2="46.7"/>
				<line class="st2" x1="1314.4" y1="29.3" x2="1321.2" y2="36.1"/>
				<line class="st2" x1="1323.1" y1="20.5" x2="1329.9" y2="27.3"/>
				<line class="st2" x1="1310.5" y1="34.1" x2="1317.3" y2="40.9"/>
				<path class="st1" d="M1353,12.4c-26.8,7.9-39.9,16.2-49.7,51.2"/>
			</g>
			<g>
				<circle class="st1" cx="2438.6" cy="38.5" r="27.2"/>
				<path class="st1" d="M2452.2,38.5c0,6.9,2.6,13.2,6.8,18c4.2-4.8,6.8-11.1,6.8-18s-2.6-13.2-6.8-18
					C2454.8,25.3,2452.2,31.6,2452.2,38.5z"/>
				<path class="st1" d="M2411.4,38.5c0,6.9,2.6,13.2,6.8,18c4.2-4.8,6.8-11.1,6.8-18s-2.6-13.2-6.8-18
					C2414,25.3,2411.4,31.6,2411.4,38.5z"/>
				<line class="st2" x1="2422.1" y1="38.5" x2="2427.9" y2="38.5"/>
				<line class="st2" x1="2421.1" y1="43.4" x2="2427.9" y2="44.3"/>
				<line class="st2" x1="2421.1" y1="33.6" x2="2427.9" y2="32.7"/>
				<line class="st2" x1="2420.1" y1="28.8" x2="2426" y2="26.8"/>
				<line class="st2" x1="2420.1" y1="48.2" x2="2426" y2="50.2"/>
				<line class="st2" x1="2422.1" y1="38.5" x2="2427.9" y2="38.5"/>
				<line class="st2" x1="2421.1" y1="43.4" x2="2427.9" y2="44.3"/>
				<line class="st2" x1="2421.1" y1="33.6" x2="2427.9" y2="32.7"/>
				<line class="st2" x1="2420.1" y1="28.8" x2="2426" y2="26.8"/>
				<line class="st2" x1="2420.1" y1="48.2" x2="2426" y2="50.2"/>
				<line class="st2" x1="2455.1" y1="38.5" x2="2449.3" y2="38.5"/>
				<line class="st2" x1="2456.1" y1="33.6" x2="2449.3" y2="32.7"/>
				<line class="st2" x1="2456.1" y1="43.4" x2="2449.3" y2="44.3"/>
				<line class="st2" x1="2457" y1="48.2" x2="2451.2" y2="50.2"/>
				<line class="st2" x1="2457" y1="28.8" x2="2451.2" y2="26.8"/>
			</g>
			<g>
				<circle class="st1" cx="1962.2" cy="37" r="27.2"/>
				<path class="st1" d="M1962.2,37l0.5,0.7c5.7,6.9,9.1,15.2,10.2,24.4h0.1"/>
				<path class="st1" d="M1962.2,37c1.3-13.2,5.8-16.9,12-24.4"/>
				<path class="st1" d="M1951.3,39c1.5-15.4,6.1-20.3,13.3-29"/>
				<path class="st1" d="M1942.6,38.5c1.5-15.4,5.4-19,12.6-27.8"/>
				<path class="st1" d="M1962.2,37c-8.6,3-18.4,2.2-27.2,0"/>
				<path class="st1" d="M1964.7,26.1c12.4,8.1,16.5,17.7,16.4,30.6"/>
				<path class="st1" d="M1969.2,18.6c12.2,5.9,16,14.6,18.6,27.5"/>
				<path class="st1" d="M1967,43.8c-14.2,6-20.2,5.7-30.9,0.7"/>
				<path class="st1" d="M1970.8,52.6c-13,5.3-18.4,4.7-29.4,1.9"/>
			</g>
			<g>
				<circle class="st1" cx="1483.9" cy="54" r="11.7"/>
				<circle class="st1" cx="1483.9" cy="51.1" r="14.6"/>
				<path class="st1" d="M1464.4,29.7v17.5v-1c0,10.7,8.7,19.4,19.4,19.4c12.9,0,23.3-10.4,23.3-23.3v-6.8v1v-6.8"/>
				<path class="st1" d="M1512,13.2V13c0-0.9-0.8-1.7-1.7-1.7h-6.3c-0.9,0-1.7,0.8-1.7,1.7v0.2c0,1.1,0.9,1.9,1.9,1.9l0,0v10.7l0,0
					c-1.1,0-1.9,0.9-1.9,1.9v0.4c0,0.8,0.7,1.5,1.5,1.5h6.7c0.8,0,1.5-0.7,1.5-1.5v-0.4c0-1.1-0.9-1.9-1.9-1.9l0,0V15.2l0,0
					C1511.2,15.2,1512,14.3,1512,13.2z"/>
				<circle cx="1505.2" cy="16.1" r="1"/>
				<circle cx="1509.1" cy="16.1" r="1"/>
				<circle cx="1507.2" cy="18.1" r="1"/>
				<circle cx="1505.2" cy="20" r="1"/>
				<circle cx="1509.1" cy="20" r="1"/>
				<circle cx="1507.2" cy="22" r="1"/>
				<circle cx="1505.2" cy="23.9" r="1"/>
				<circle cx="1509.1" cy="23.9" r="1"/>
				<circle cx="1507.2" cy="25.9" r="1"/>
				<path class="st1" d="M1469.3,13.2V13c0-0.9-0.8-1.7-1.7-1.7h-6.3c-0.9,0-1.7,0.8-1.7,1.7v0.2c0,1.1,0.9,1.9,1.9,1.9l0,0v10.7
					l0,0c-1.1,0-1.9,0.9-1.9,1.9v0.4c0,0.8,0.7,1.5,1.5,1.5h6.7c0.8,0,1.5-0.7,1.5-1.5v-0.4c0-1.1-0.9-1.9-1.9-1.9l0,0V15.2l0,0
					C1468.4,15.2,1469.3,14.3,1469.3,13.2z"/>
				<circle cx="1462.5" cy="16.1" r="1"/>
				<circle cx="1466.4" cy="16.1" r="1"/>
				<circle cx="1464.4" cy="18.1" r="1"/>
				<circle cx="1462.5" cy="20" r="1"/>
				<circle cx="1466.4" cy="20" r="1"/>
				<circle cx="1464.4" cy="22" r="1"/>
				<circle cx="1462.5" cy="23.9" r="1"/>
				<circle cx="1466.4" cy="23.9" r="1"/>
				<circle cx="1464.4" cy="25.9" r="1"/>
			</g>
			<g>
				<path class="st2" d="M1656.3,27.8l-3.9-4.3c-0.8-0.6-1.8-0.7-2.7-0.3c-4,1.7-9.3,6.8-18,9c-1.1,0.3-2.2,0.4-3.2,0.5l-7.5,0
					c-1.5-0.1-2.8,0.8-3.4,2.1v0c-0.6,1.6-0.1,3.4,1.3,4.3c0,0,0.1,0.1,0.1,0.1c4.4,2.9,9.5,4.2,14.7,3.7c3.7-0.3,9.4-1,13.7-1.7
					c2.6-0.5,5.2-0.4,7.7,0.2l5.1,1.2l0.1,0c0.1,0,0.1,0,0.2,0.1c5.5,1.7,13.3-1.3,10.7-10.5c-0.1-0.2-0.2-0.4-0.3-0.7l-2.3-6.2
					c-0.4-1.1-1.9-1.3-2.6-0.4v0c-1.3,1.8-3.4,3-5.5,3H1656.3z"/>
				<line class="st2" x1="1622.2" y1="41.1" x2="1622.2" y2="44.2"/>
				<line class="st2" x1="1626.1" y1="42.4" x2="1626.1" y2="45.2"/>
				<line class="st2" x1="1630" y1="45.2" x2="1630" y2="43"/>
				<line class="st2" x1="1665" y1="45.2" x2="1665" y2="43"/>
				<line class="st2" x1="1661.1" y1="45.3" x2="1661.1" y2="42.8"/>
				<line class="st2" x1="1657.2" y1="45.3" x2="1657.2" y2="41.8"/>
				<line class="st2" x1="1648.5" y1="32.7" x2="1643.3" y2="27"/>
				<line class="st2" x1="1643.6" y1="33.7" x2="1639.3" y2="29.3"/>
				<line class="st2" x1="1638.8" y1="34.6" x2="1635.2" y2="31.1"/>
			</g>
			<g>
				<circle class="st2" cx="1803.4" cy="42.5" r="22.7"/>
				<g>
					<g>
						<line class="st2" x1="1790.8" y1="27.6" x2="1794.2" y2="31.6"/>
						<line class="st2" x1="1784.3" y1="39.1" x2="1789.4" y2="40"/>
						<line class="st2" x1="1786.5" y1="52.5" x2="1791" y2="49.9"/>
						<line class="st2" x1="1796.9" y1="61" x2="1798.7" y2="56.2"/>
					</g>
					<g>
						<line class="st2" x1="1803" y1="23.1" x2="1803" y2="28.6"/>
						<line class="st2" x1="1815.9" y1="27.6" x2="1812.6" y2="31.6"/>
						<line class="st2" x1="1822.5" y1="39.1" x2="1817.4" y2="40"/>
						<line class="st2" x1="1820.3" y1="52.5" x2="1815.8" y2="49.9"/>
						<line class="st2" x1="1809.9" y1="61" x2="1808.1" y2="56.2"/>
					</g>
				</g>
				<path class="st2" d="M1804.8,44.2c0.1,0,0.1-0.1,0.2-0.2c0.6-0.6,1-1.5,1-2.3l3.1-6.6l-6.6,3.1c-0.8,0-1.7,0.4-2.3,1
					c-0.1,0.1-0.1,0.1-0.2,0.2l0,0l0,0c-1.1,1.3-1.1,3.3,0.2,4.6C1801.4,45.3,1803.4,45.4,1804.8,44.2L1804.8,44.2L1804.8,44.2z"/>
				<path class="st2" d="M1783.8,27.1l-2.7-3.2c-0.6-0.7-0.7-1.7-0.2-2.1l5-4.2c0.5-0.4,1.4-0.2,2.1,0.6l2.7,3.2"/>
				<line class="st2" x1="1806.7" y1="16.4" x2="1806.7" y2="18.5"/>
				<line class="st2" x1="1800.6" y1="18.5" x2="1800.6" y2="16.4"/>
				<path class="st2" d="M1822.8,27.1l2.7-3.2c0.6-0.7,0.7-1.7,0.2-2.1l-5-4.2c-0.5-0.4-1.4-0.2-2.1,0.6l-2.7,3.2"/>
				<path class="st2" d="M1806.4,16.1h-5.5c-0.9,0-1.7-0.8-1.7-1.7v-3.1c0-0.9,0.8-1.7,1.7-1.7h5.5c0.9,0,1.7,0.8,1.7,1.7v3.1
					C1808.1,15.3,1807.3,16.1,1806.4,16.1z"/>
			</g>
			<g>
				<path class="st1" d="M2142.5,50.4c0-11.8-9.5-21.2-21.3-21.2s-21.3,9.4-21.3,21.2c0,6.4,2.8,12.2,7.2,15.9h28.1
					C2139.7,62.5,2142.5,56.8,2142.5,50.4z"/>
				<path class="st1" d="M2107,31.3c-0.4-1.1-0.7-2.2-0.7-3.4c0-6.9,6.8-12.4,14.5-12.4c7.6,0,14.5,5.6,14.5,12.4
					c0,1.2-0.2,2.3-0.6,3.4"/>
				<path class="st1" d="M2140.1,35.6c1.3-2.4,2.1-5,2.1-7.8c0-10.1-9.9-18.3-21.4-18.3c-11.5,0-21.3,8.2-21.3,18.3
					c0,2.8,0.8,5.4,2.1,7.8"/>
			</g>
			<g>
				<g>
					<path class="st2" d="M2261,61.4h-6.2c-1.3,0-2.3-1.1-2.3-2.3V21c0-1.3,1.1-2.3,2.3-2.3h6.2c1.3,0,2.3,1.1,2.3,2.3v38
						C2263.4,60.3,2262.3,61.4,2261,61.4z"/>
					<path class="st2" d="M2250.5,56.6h-5c-1.1,0-2-0.8-2-1.8V25.2c0-1,0.9-1.8,2-1.8h5"/>
					<path class="st2" d="M2241.1,51.7h-2.1c-0.7,0-1.2-0.5-1.2-1V29.4c0-0.6,0.5-1,1.2-1h2.1"/>
				</g>
				<g>
					<path class="st2" d="M2298.5,61.4h6.2c1.3,0,2.3-1.1,2.3-2.3V21c0-1.3-1.1-2.3-2.3-2.3h-6.2c-1.3,0-2.3,1.1-2.3,2.3v38
						C2296.2,60.3,2297.3,61.4,2298.5,61.4z"/>
					<path class="st2" d="M2309.1,56.6h5c1.1,0,2-0.8,2-1.8V25.2c0-1-0.9-1.8-2-1.8h-5"/>
					<path class="st2" d="M2318.5,51.7h2.1c0.7,0,1.2-0.5,1.2-1V29.4c0-0.6-0.5-1-1.2-1h-2.1"/>
				</g>
				<g>
					<line class="st2" x1="2265.9" y1="35.8" x2="2293.6" y2="35.8"/>
					<line class="st2" x1="2293.6" y1="44.2" x2="2265.9" y2="44.2"/>
				</g>
			</g>
		</g>
	</g>
	<g>
		<g>
			<g>
				<path class="st1" d="M-241.3,152.9v-3.5c0-24.6,20-44.6,44.6-44.6h3.5c3.5,0,6.3,2.8,6.3,6.3v3.5c0,24.6-20,44.6-44.6,44.6h-3.5
					C-238.5,159.2-241.3,156.4-241.3,152.9z"/>
				<line class="st2" x1="-212.1" y1="112.6" x2="-205.3" y2="119.4"/>
				<line class="st2" x1="-236.4" y1="140.7" x2="-229.6" y2="147.5"/>
				<line class="st2" x1="-222.8" y1="119.4" x2="-216" y2="126.2"/>
				<line class="st2" x1="-233.5" y1="134.9" x2="-226.7" y2="141.7"/>
				<line class="st2" x1="-226.7" y1="124.2" x2="-219.9" y2="131"/>
				<line class="st2" x1="-217.9" y1="115.5" x2="-211.1" y2="122.3"/>
				<line class="st2" x1="-230.6" y1="129.1" x2="-223.8" y2="135.9"/>
				<path class="st1" d="M-188.1,107.4c-26.8,7.9-39.9,16.2-49.7,51.2"/>
			</g>
			<g>
				<circle class="st1" cx="897.5" cy="133.5" r="27.2"/>
				<path class="st1" d="M911.1,133.5c0,6.9,2.6,13.2,6.8,18c4.2-4.8,6.8-11.1,6.8-18c0-6.9-2.6-13.2-6.8-18
					C913.7,120.3,911.1,126.6,911.1,133.5z"/>
				<path class="st1" d="M870.3,133.5c0,6.9,2.6,13.2,6.8,18c4.2-4.8,6.8-11.1,6.8-18c0-6.9-2.6-13.2-6.8-18
					C872.9,120.3,870.3,126.6,870.3,133.5z"/>
				<line class="st2" x1="881" y1="133.5" x2="886.8" y2="133.5"/>
				<line class="st2" x1="880" y1="138.3" x2="886.8" y2="139.3"/>
				<line class="st2" x1="880" y1="128.6" x2="886.8" y2="127.6"/>
				<line class="st2" x1="879.1" y1="123.8" x2="884.9" y2="121.8"/>
				<line class="st2" x1="879.1" y1="143.2" x2="884.9" y2="145.1"/>
				<line class="st2" x1="881" y1="133.5" x2="886.8" y2="133.5"/>
				<line class="st2" x1="880" y1="138.3" x2="886.8" y2="139.3"/>
				<line class="st2" x1="880" y1="128.6" x2="886.8" y2="127.6"/>
				<line class="st2" x1="879.1" y1="123.8" x2="884.9" y2="121.8"/>
				<line class="st2" x1="879.1" y1="143.2" x2="884.9" y2="145.1"/>
				<line class="st2" x1="914" y1="133.5" x2="908.2" y2="133.5"/>
				<line class="st2" x1="915" y1="128.6" x2="908.2" y2="127.6"/>
				<line class="st2" x1="915" y1="138.3" x2="908.2" y2="139.3"/>
				<line class="st2" x1="916" y1="143.2" x2="910.2" y2="145.1"/>
				<line class="st2" x1="916" y1="123.8" x2="910.2" y2="121.8"/>
			</g>
			<g>
				<circle class="st1" cx="421.1" cy="132" r="27.2"/>
				<path class="st1" d="M421.1,132l0.5,0.7c5.7,6.9,9.1,15.2,10.2,24.4h0.1"/>
				<path class="st1" d="M421.1,132c1.3-13.2,5.8-16.9,12-24.4"/>
				<path class="st1" d="M410.3,133.9c1.5-15.4,6.1-20.3,13.3-29"/>
				<path class="st1" d="M401.5,133.5c1.5-15.4,5.4-19,12.6-27.8"/>
				<path class="st1" d="M421.1,132c-8.6,3-18.4,2.2-27.2,0"/>
				<path class="st1" d="M423.6,121.1c12.4,8.1,16.5,17.7,16.4,30.6"/>
				<path class="st1" d="M428.2,113.5c12.2,5.9,16,14.6,18.6,27.5"/>
				<path class="st1" d="M425.9,138.8c-14.2,6-20.2,5.7-30.9,0.7"/>
				<path class="st1" d="M429.7,147.6c-13,5.3-18.4,4.7-29.4,1.9"/>
			</g>
			<g>
				<circle class="st1" cx="-57.2" cy="149" r="11.7"/>
				<circle class="st1" cx="-57.2" cy="146.1" r="14.6"/>
				<path class="st1" d="M-76.6,124.7v17.5v-1c0,10.7,8.7,19.4,19.4,19.4c12.9,0,23.3-10.4,23.3-23.3v-6.8v1v-6.8"/>
				<path class="st1" d="M-29,108.2V108c0-0.9-0.8-1.7-1.7-1.7H-37c-0.9,0-1.7,0.8-1.7,1.7v0.2c0,1.1,0.9,1.9,1.9,1.9l0,0v10.7l0,0
					c-1.1,0-1.9,0.9-1.9,1.9v0.4c0,0.8,0.7,1.5,1.5,1.5h6.7c0.8,0,1.5-0.7,1.5-1.5v-0.4c0-1.1-0.9-1.9-1.9-1.9h0v-10.7h0
					C-29.9,110.1-29,109.3-29,108.2z"/>
				<circle cx="-35.8" cy="111.1" r="1"/>
				<circle cx="-31.9" cy="111.1" r="1"/>
				<circle cx="-33.9" cy="113" r="1"/>
				<circle cx="-35.8" cy="115" r="1"/>
				<circle cx="-31.9" cy="115" r="1"/>
				<circle cx="-33.9" cy="116.9" r="1"/>
				<circle cx="-35.8" cy="118.9" r="1"/>
				<circle cx="-31.9" cy="118.9" r="1"/>
				<circle cx="-33.9" cy="120.8" r="1"/>
				<path class="st1" d="M-71.8,108.2V108c0-0.9-0.8-1.7-1.7-1.7h-6.3c-0.9,0-1.7,0.8-1.7,1.7v0.2c0,1.1,0.9,1.9,1.9,1.9l0,0v10.7
					l0,0c-1.1,0-1.9,0.9-1.9,1.9v0.4c0,0.8,0.7,1.5,1.5,1.5h6.7c0.8,0,1.5-0.7,1.5-1.5v-0.4c0-1.1-0.9-1.9-1.9-1.9l0,0v-10.7l0,0
					C-72.6,110.1-71.8,109.3-71.8,108.2z"/>
				<circle cx="-78.6" cy="111.1" r="1"/>
				<circle cx="-74.7" cy="111.1" r="1"/>
				<circle cx="-76.6" cy="113" r="1"/>
				<circle cx="-78.6" cy="115" r="1"/>
				<circle cx="-74.7" cy="115" r="1"/>
				<circle cx="-76.6" cy="116.9" r="1"/>
				<circle cx="-78.6" cy="118.9" r="1"/>
				<circle cx="-74.7" cy="118.9" r="1"/>
				<circle cx="-76.6" cy="120.8" r="1"/>
			</g>
			<g>
				<path class="st2" d="M115.2,122.8l-3.9-4.3c-0.8-0.6-1.8-0.7-2.7-0.3c-4,1.7-9.3,6.8-18,9c-1.1,0.3-2.2,0.4-3.2,0.5l-7.5,0
					c-1.5-0.1-2.8,0.8-3.4,2.1l0,0c-0.6,1.6-0.1,3.4,1.3,4.3c0,0,0.1,0.1,0.1,0.1c4.4,2.9,9.5,4.2,14.7,3.7c3.7-0.3,9.4-1,13.7-1.7
					c2.6-0.5,5.2-0.4,7.7,0.2l5.1,1.2l0.1,0c0.1,0,0.1,0,0.2,0.1c5.5,1.7,13.3-1.3,10.7-10.5c-0.1-0.2-0.2-0.4-0.3-0.7l-2.3-6.2
					c-0.4-1.1-1.9-1.3-2.6-0.4l0,0c-1.3,1.8-3.4,3-5.5,3H115.2z"/>
				<line class="st2" x1="81.2" y1="136" x2="81.2" y2="139.2"/>
				<line class="st2" x1="85.1" y1="137.3" x2="85.1" y2="140.1"/>
				<line class="st2" x1="89" y1="140.1" x2="89" y2="137.9"/>
				<line class="st2" x1="123.9" y1="140.1" x2="123.9" y2="138"/>
				<line class="st2" x1="120.1" y1="140.2" x2="120.1" y2="137.8"/>
				<line class="st2" x1="116.2" y1="140.2" x2="116.2" y2="136.8"/>
				<line class="st2" x1="107.4" y1="127.6" x2="102.2" y2="122"/>
				<line class="st2" x1="102.6" y1="128.6" x2="98.2" y2="124.2"/>
				<line class="st2" x1="97.7" y1="129.6" x2="94.1" y2="126"/>
			</g>
			<g>
				<circle class="st2" cx="262.4" cy="137.4" r="22.7"/>
				<g>
					<g>
						<line class="st2" x1="249.8" y1="122.6" x2="253.1" y2="126.5"/>
						<line class="st2" x1="243.2" y1="134.1" x2="248.3" y2="135"/>
						<line class="st2" x1="245.4" y1="147.5" x2="249.9" y2="144.9"/>
						<line class="st2" x1="255.9" y1="156" x2="257.7" y2="151.1"/>
					</g>
					<g>
						<line class="st2" x1="261.9" y1="118.1" x2="261.9" y2="123.5"/>
						<line class="st2" x1="274.9" y1="122.6" x2="271.6" y2="126.5"/>
						<line class="st2" x1="281.5" y1="134.1" x2="276.4" y2="135"/>
						<line class="st2" x1="279.3" y1="147.5" x2="274.8" y2="144.9"/>
						<line class="st2" x1="268.8" y1="156" x2="267" y2="151.1"/>
					</g>
				</g>
				<path class="st2" d="M263.7,139.2c0.1,0,0.1-0.1,0.2-0.2c0.6-0.6,1-1.5,1-2.3l3.1-6.6l-6.6,3.1c-0.8,0-1.7,0.4-2.3,1
					c-0.1,0.1-0.1,0.1-0.2,0.2l0,0l0,0c-1.1,1.3-1.1,3.3,0.2,4.6C260.4,140.3,262.4,140.4,263.7,139.2L263.7,139.2L263.7,139.2z"/>
				<path class="st2" d="M242.8,122l-2.7-3.2c-0.6-0.7-0.7-1.7-0.2-2.1l5-4.2c0.5-0.4,1.4-0.2,2.1,0.6l2.7,3.2"/>
				<line class="st2" x1="265.7" y1="111.3" x2="265.7" y2="113.4"/>
				<line class="st2" x1="259.5" y1="113.5" x2="259.5" y2="111.4"/>
				<path class="st2" d="M281.8,122l2.7-3.2c0.6-0.7,0.7-1.7,0.2-2.1l-5-4.2c-0.5-0.4-1.4-0.2-2.1,0.6l-2.7,3.2"/>
				<path class="st2" d="M265.3,111h-5.5c-0.9,0-1.7-0.8-1.7-1.7v-3.1c0-0.9,0.8-1.7,1.7-1.7h5.5c0.9,0,1.7,0.8,1.7,1.7v3.1
					C267,110.3,266.3,111,265.3,111z"/>
			</g>
			<g>
				<path class="st1" d="M601.4,145.3c0-11.8-9.5-21.2-21.3-21.2s-21.3,9.4-21.3,21.2c0,6.4,2.8,12.2,7.2,15.9h28.1
					C598.6,157.5,601.4,151.7,601.4,145.3z"/>
				<path class="st1" d="M566,126.2c-0.4-1.1-0.7-2.2-0.7-3.4c0-6.9,6.8-12.4,14.5-12.4s14.5,5.6,14.5,12.4c0,1.2-0.2,2.3-0.6,3.4"
					/>
				<path class="st1" d="M599.1,130.6c1.3-2.4,2.1-5,2.1-7.8c0-10.1-9.9-18.3-21.4-18.3s-21.3,8.2-21.3,18.3c0,2.8,0.8,5.4,2.1,7.8"
					/>
			</g>
			<g>
				<g>
					<path class="st2" d="M720,156.3h-6.2c-1.3,0-2.3-1.1-2.3-2.3v-38c0-1.3,1.1-2.3,2.3-2.3h6.2c1.3,0,2.3,1.1,2.3,2.3v38
						C722.3,155.3,721.3,156.3,720,156.3z"/>
					<path class="st2" d="M709.4,151.6h-5c-1.1,0-2-0.8-2-1.8v-29.6c0-1,0.9-1.8,2-1.8h5"/>
					<path class="st2" d="M700.1,146.6h-2.1c-0.7,0-1.2-0.5-1.2-1v-21.2c0-0.6,0.5-1,1.2-1h2.1"/>
				</g>
				<g>
					<path class="st2" d="M757.5,156.3h6.2c1.3,0,2.3-1.1,2.3-2.3v-38c0-1.3-1.1-2.3-2.3-2.3h-6.2c-1.3,0-2.3,1.1-2.3,2.3v38
						C755.1,155.3,756.2,156.3,757.5,156.3z"/>
					<path class="st2" d="M768,151.6h5c1.1,0,2-0.8,2-1.8v-29.6c0-1-0.9-1.8-2-1.8h-5"/>
					<path class="st2" d="M777.4,146.6h2.1c0.7,0,1.2-0.5,1.2-1v-21.2c0-0.6-0.5-1-1.2-1h-2.1"/>
				</g>
				<g>
					<line class="st2" x1="724.9" y1="130.8" x2="752.5" y2="130.8"/>
					<line class="st2" x1="752.5" y1="139.2" x2="724.9" y2="139.2"/>
				</g>
			</g>
		</g>
		<g>
			<g>
				<path class="st1" d="M1041.5,152.9v-3.5c0-24.6,20-44.6,44.6-44.6h3.5c3.5,0,6.3,2.8,6.3,6.3v3.5c0,24.6-20,44.6-44.6,44.6h-3.5
					C1044.3,159.2,1041.5,156.4,1041.5,152.9z"/>
				<line class="st2" x1="1070.7" y1="112.6" x2="1077.5" y2="119.4"/>
				<line class="st2" x1="1046.4" y1="140.7" x2="1053.2" y2="147.5"/>
				<line class="st2" x1="1060" y1="119.4" x2="1066.8" y2="126.2"/>
				<line class="st2" x1="1049.3" y1="134.9" x2="1056.1" y2="141.7"/>
				<line class="st2" x1="1056.1" y1="124.2" x2="1062.9" y2="131"/>
				<line class="st2" x1="1064.8" y1="115.5" x2="1071.6" y2="122.3"/>
				<line class="st2" x1="1052.2" y1="129.1" x2="1059" y2="135.9"/>
				<path class="st1" d="M1094.7,107.4c-26.8,7.9-39.9,16.2-49.7,51.2"/>
			</g>
			<g>
				<circle class="st1" cx="2180.3" cy="133.5" r="27.2"/>
				<path class="st1" d="M2193.9,133.5c0,6.9,2.6,13.2,6.8,18c4.2-4.8,6.8-11.1,6.8-18c0-6.9-2.6-13.2-6.8-18
					C2196.5,120.3,2193.9,126.6,2193.9,133.5z"/>
				<path class="st1" d="M2153.1,133.5c0,6.9,2.6,13.2,6.8,18c4.2-4.8,6.8-11.1,6.8-18c0-6.9-2.6-13.2-6.8-18
					C2155.7,120.3,2153.1,126.6,2153.1,133.5z"/>
				<line class="st2" x1="2163.8" y1="133.5" x2="2169.6" y2="133.5"/>
				<line class="st2" x1="2162.8" y1="138.3" x2="2169.6" y2="139.3"/>
				<line class="st2" x1="2162.8" y1="128.6" x2="2169.6" y2="127.6"/>
				<line class="st2" x1="2161.9" y1="123.8" x2="2167.7" y2="121.8"/>
				<line class="st2" x1="2161.9" y1="143.2" x2="2167.7" y2="145.1"/>
				<line class="st2" x1="2163.8" y1="133.5" x2="2169.6" y2="133.5"/>
				<line class="st2" x1="2162.8" y1="138.3" x2="2169.6" y2="139.3"/>
				<line class="st2" x1="2162.8" y1="128.6" x2="2169.6" y2="127.6"/>
				<line class="st2" x1="2161.9" y1="123.8" x2="2167.7" y2="121.8"/>
				<line class="st2" x1="2161.9" y1="143.2" x2="2167.7" y2="145.1"/>
				<line class="st2" x1="2196.8" y1="133.5" x2="2191" y2="133.5"/>
				<line class="st2" x1="2197.8" y1="128.6" x2="2191" y2="127.6"/>
				<line class="st2" x1="2197.8" y1="138.3" x2="2191" y2="139.3"/>
				<line class="st2" x1="2198.8" y1="143.2" x2="2193" y2="145.1"/>
				<line class="st2" x1="2198.8" y1="123.8" x2="2193" y2="121.8"/>
			</g>
			<g>
				<circle class="st1" cx="1703.9" cy="132" r="27.2"/>
				<path class="st1" d="M1703.9,132l0.5,0.7c5.7,6.9,9.1,15.2,10.2,24.4h0.1"/>
				<path class="st1" d="M1703.9,132c1.3-13.2,5.8-16.9,12-24.4"/>
				<path class="st1" d="M1693,133.9c1.5-15.4,6.1-20.3,13.3-29"/>
				<path class="st1" d="M1684.3,133.5c1.5-15.4,5.4-19,12.6-27.8"/>
				<path class="st1" d="M1703.9,132c-8.6,3-18.4,2.2-27.2,0"/>
				<path class="st1" d="M1706.4,121.1c12.4,8.1,16.5,17.7,16.4,30.6"/>
				<path class="st1" d="M1711,113.5c12.2,5.9,16,14.6,18.6,27.5"/>
				<path class="st1" d="M1708.7,138.8c-14.2,6-20.2,5.7-30.9,0.7"/>
				<path class="st1" d="M1712.5,147.6c-13,5.3-18.4,4.7-29.4,1.9"/>
			</g>
			<g>
				<circle class="st1" cx="1225.6" cy="149" r="11.7"/>
				<circle class="st1" cx="1225.6" cy="146.1" r="14.6"/>
				<path class="st1" d="M1206.2,124.7v17.5v-1c0,10.7,8.7,19.4,19.4,19.4c12.9,0,23.3-10.4,23.3-23.3v-6.8v1v-6.8"/>
				<path class="st1" d="M1253.8,108.2V108c0-0.9-0.8-1.7-1.7-1.7h-6.3c-0.9,0-1.7,0.8-1.7,1.7v0.2c0,1.1,0.9,1.9,1.9,1.9l0,0v10.7
					l0,0c-1.1,0-1.9,0.9-1.9,1.9v0.4c0,0.8,0.7,1.5,1.5,1.5h6.7c0.8,0,1.5-0.7,1.5-1.5v-0.4c0-1.1-0.9-1.9-1.9-1.9l0,0v-10.7l0,0
					C1252.9,110.1,1253.8,109.3,1253.8,108.2z"/>
				<circle cx="1247" cy="111.1" r="1"/>
				<circle cx="1250.9" cy="111.1" r="1"/>
				<circle cx="1248.9" cy="113" r="1"/>
				<circle cx="1247" cy="115" r="1"/>
				<circle cx="1250.9" cy="115" r="1"/>
				<circle cx="1248.9" cy="116.9" r="1"/>
				<circle cx="1247" cy="118.9" r="1"/>
				<circle cx="1250.9" cy="118.9" r="1"/>
				<circle cx="1248.9" cy="120.8" r="1"/>
				<path class="st1" d="M1211,108.2V108c0-0.9-0.8-1.7-1.7-1.7h-6.3c-0.9,0-1.7,0.8-1.7,1.7v0.2c0,1.1,0.9,1.9,1.9,1.9l0,0v10.7
					l0,0c-1.1,0-1.9,0.9-1.9,1.9v0.4c0,0.8,0.7,1.5,1.5,1.5h6.7c0.8,0,1.5-0.7,1.5-1.5v-0.4c0-1.1-0.9-1.9-1.9-1.9l0,0v-10.7l0,0
					C1210.1,110.1,1211,109.3,1211,108.2z"/>
				<circle cx="1204.2" cy="111.1" r="1"/>
				<circle cx="1208.1" cy="111.1" r="1"/>
				<circle cx="1206.2" cy="113" r="1"/>
				<circle cx="1204.2" cy="115" r="1"/>
				<circle cx="1208.1" cy="115" r="1"/>
				<circle cx="1206.2" cy="116.9" r="1"/>
				<circle cx="1204.2" cy="118.9" r="1"/>
				<circle cx="1208.1" cy="118.9" r="1"/>
				<circle cx="1206.2" cy="120.8" r="1"/>
			</g>
			<g>
				<path class="st2" d="M1398,122.8l-3.9-4.3c-0.8-0.6-1.8-0.7-2.7-0.3c-4,1.7-9.3,6.8-18,9c-1.1,0.3-2.2,0.4-3.2,0.5l-7.5,0
					c-1.5-0.1-2.8,0.8-3.4,2.1v0c-0.6,1.6-0.1,3.4,1.3,4.3c0,0,0.1,0.1,0.1,0.1c4.4,2.9,9.5,4.2,14.7,3.7c3.7-0.3,9.4-1,13.7-1.7
					c2.6-0.5,5.2-0.4,7.7,0.2l5.1,1.2l0.1,0c0.1,0,0.1,0,0.2,0.1c5.5,1.7,13.3-1.3,10.7-10.5c-0.1-0.2-0.2-0.4-0.3-0.7l-2.3-6.2
					c-0.4-1.1-1.9-1.3-2.6-0.4l0,0c-1.3,1.8-3.4,3-5.5,3H1398z"/>
				<line class="st2" x1="1364" y1="136" x2="1364" y2="139.2"/>
				<line class="st2" x1="1367.9" y1="137.3" x2="1367.9" y2="140.1"/>
				<line class="st2" x1="1371.8" y1="140.1" x2="1371.8" y2="137.9"/>
				<line class="st2" x1="1406.7" y1="140.1" x2="1406.7" y2="138"/>
				<line class="st2" x1="1402.8" y1="140.2" x2="1402.8" y2="137.8"/>
				<line class="st2" x1="1399" y1="140.2" x2="1399" y2="136.8"/>
				<line class="st2" x1="1390.2" y1="127.6" x2="1385" y2="122"/>
				<line class="st2" x1="1385.4" y1="128.6" x2="1381" y2="124.2"/>
				<line class="st2" x1="1380.5" y1="129.6" x2="1376.9" y2="126"/>
			</g>
			<g>
				<circle class="st2" cx="1545.1" cy="137.4" r="22.7"/>
				<g>
					<g>
						<line class="st2" x1="1532.6" y1="122.6" x2="1535.9" y2="126.5"/>
						<line class="st2" x1="1526" y1="134.1" x2="1531.1" y2="135"/>
						<line class="st2" x1="1528.2" y1="147.5" x2="1532.7" y2="144.9"/>
						<line class="st2" x1="1538.7" y1="156" x2="1540.4" y2="151.1"/>
					</g>
					<g>
						<line class="st2" x1="1544.7" y1="118.1" x2="1544.7" y2="123.5"/>
						<line class="st2" x1="1557.7" y1="122.6" x2="1554.3" y2="126.5"/>
						<line class="st2" x1="1564.3" y1="134.1" x2="1559.2" y2="135"/>
						<line class="st2" x1="1562" y1="147.5" x2="1557.6" y2="144.9"/>
						<line class="st2" x1="1551.6" y1="156" x2="1549.8" y2="151.1"/>
					</g>
				</g>
				<path class="st2" d="M1546.5,139.2c0.1,0,0.1-0.1,0.2-0.2c0.6-0.6,1-1.5,1-2.3l3.1-6.6l-6.6,3.1c-0.8,0-1.7,0.4-2.3,1
					c-0.1,0.1-0.1,0.1-0.2,0.2l0,0l0,0c-1.1,1.3-1.1,3.3,0.2,4.6C1543.2,140.3,1545.2,140.4,1546.5,139.2L1546.5,139.2L1546.5,139.2
					z"/>
				<path class="st2" d="M1525.6,122l-2.7-3.2c-0.6-0.7-0.7-1.7-0.2-2.1l5-4.2c0.5-0.4,1.4-0.2,2.1,0.6l2.7,3.2"/>
				<line class="st2" x1="1548.5" y1="111.3" x2="1548.5" y2="113.4"/>
				<line class="st2" x1="1542.3" y1="113.5" x2="1542.3" y2="111.4"/>
				<path class="st2" d="M1564.6,122l2.7-3.2c0.6-0.7,0.7-1.7,0.2-2.1l-5-4.2c-0.5-0.4-1.4-0.2-2.1,0.6l-2.7,3.2"/>
				<path class="st2" d="M1548.1,111h-5.5c-0.9,0-1.7-0.8-1.7-1.7v-3.1c0-0.9,0.8-1.7,1.7-1.7h5.5c0.9,0,1.7,0.8,1.7,1.7v3.1
					C1549.8,110.3,1549.1,111,1548.1,111z"/>
			</g>
			<g>
				<path class="st1" d="M1884.2,145.3c0-11.8-9.5-21.2-21.3-21.2c-11.8,0-21.3,9.4-21.3,21.2c0,6.4,2.8,12.2,7.2,15.9h28.1
					C1881.4,157.5,1884.2,151.7,1884.2,145.3z"/>
				<path class="st1" d="M1848.8,126.2c-0.4-1.1-0.7-2.2-0.7-3.4c0-6.9,6.8-12.4,14.5-12.4s14.5,5.6,14.5,12.4
					c0,1.2-0.2,2.3-0.6,3.4"/>
				<path class="st1" d="M1881.9,130.6c1.3-2.4,2.1-5,2.1-7.8c0-10.1-9.9-18.3-21.4-18.3c-11.5,0-21.3,8.2-21.3,18.3
					c0,2.8,0.8,5.4,2.1,7.8"/>
			</g>
			<g>
				<g>
					<path class="st2" d="M2002.8,156.3h-6.2c-1.3,0-2.3-1.1-2.3-2.3v-38c0-1.3,1.1-2.3,2.3-2.3h6.2c1.3,0,2.3,1.1,2.3,2.3v38
						C2005.1,155.3,2004.1,156.3,2002.8,156.3z"/>
					<path class="st2" d="M1992.2,151.6h-5c-1.1,0-2-0.8-2-1.8v-29.6c0-1,0.9-1.8,2-1.8h5"/>
					<path class="st2" d="M1982.8,146.6h-2.1c-0.7,0-1.2-0.5-1.2-1v-21.2c0-0.6,0.5-1,1.2-1h2.1"/>
				</g>
				<g>
					<path class="st2" d="M2040.3,156.3h6.2c1.3,0,2.3-1.1,2.3-2.3v-38c0-1.3-1.1-2.3-2.3-2.3h-6.2c-1.3,0-2.3,1.1-2.3,2.3v38
						C2037.9,155.3,2039,156.3,2040.3,156.3z"/>
					<path class="st2" d="M2050.8,151.6h5c1.1,0,2-0.8,2-1.8v-29.6c0-1-0.9-1.8-2-1.8h-5"/>
					<path class="st2" d="M2060.2,146.6h2.1c0.7,0,1.2-0.5,1.2-1v-21.2c0-0.6-0.5-1-1.2-1h-2.1"/>
				</g>
				<g>
					<line class="st2" x1="2007.7" y1="130.8" x2="2035.3" y2="130.8"/>
					<line class="st2" x1="2035.3" y1="139.2" x2="2007.7" y2="139.2"/>
				</g>
			</g>
		</g>
	</g>
	<g>
		<g>
			<g>
				<path class="st1" d="M-466.8,247.9v-3.5c0-24.6,20-44.6,44.6-44.6h3.5c3.5,0,6.3,2.8,6.3,6.3v3.5c0,24.6-20,44.6-44.6,44.6h-3.5
					C-464,254.2-466.8,251.4-466.8,247.9z"/>
				<line class="st2" x1="-437.7" y1="207.5" x2="-430.9" y2="214.3"/>
				<line class="st2" x1="-462" y1="235.7" x2="-455.2" y2="242.5"/>
				<line class="st2" x1="-448.4" y1="214.3" x2="-441.6" y2="221.1"/>
				<line class="st2" x1="-459.1" y1="229.9" x2="-452.2" y2="236.7"/>
				<line class="st2" x1="-452.2" y1="219.2" x2="-445.4" y2="226"/>
				<line class="st2" x1="-443.5" y1="210.4" x2="-436.7" y2="217.2"/>
				<line class="st2" x1="-456.1" y1="224" x2="-449.3" y2="230.8"/>
				<path class="st1" d="M-413.6,202.3c-26.8,7.9-39.9,16.2-49.7,51.2"/>
			</g>
			<g>
				<circle class="st1" cx="672" cy="228.4" r="27.2"/>
				<path class="st1" d="M685.6,228.4c0,6.9,2.6,13.2,6.8,18c4.2-4.8,6.8-11.1,6.8-18c0-6.9-2.6-13.2-6.8-18
					C688.1,215.3,685.6,221.5,685.6,228.4z"/>
				<path class="st1" d="M644.8,228.4c0,6.9,2.6,13.2,6.8,18c4.2-4.8,6.8-11.1,6.8-18c0-6.9-2.6-13.2-6.8-18
					C647.3,215.3,644.8,221.5,644.8,228.4z"/>
				<line class="st2" x1="655.5" y1="228.4" x2="661.3" y2="228.4"/>
				<line class="st2" x1="654.5" y1="233.3" x2="661.3" y2="234.3"/>
				<line class="st2" x1="654.5" y1="223.6" x2="661.3" y2="222.6"/>
				<line class="st2" x1="653.5" y1="218.7" x2="659.3" y2="216.8"/>
				<line class="st2" x1="653.5" y1="238.2" x2="659.3" y2="240.1"/>
				<line class="st2" x1="655.5" y1="228.4" x2="661.3" y2="228.4"/>
				<line class="st2" x1="654.5" y1="233.3" x2="661.3" y2="234.3"/>
				<line class="st2" x1="654.5" y1="223.6" x2="661.3" y2="222.6"/>
				<line class="st2" x1="653.5" y1="218.7" x2="659.3" y2="216.8"/>
				<line class="st2" x1="653.5" y1="238.2" x2="659.3" y2="240.1"/>
				<line class="st2" x1="688.5" y1="228.4" x2="682.7" y2="228.4"/>
				<line class="st2" x1="689.5" y1="223.6" x2="682.7" y2="222.6"/>
				<line class="st2" x1="689.5" y1="233.3" x2="682.7" y2="234.3"/>
				<line class="st2" x1="690.4" y1="238.2" x2="684.6" y2="240.1"/>
				<line class="st2" x1="690.4" y1="218.7" x2="684.6" y2="216.8"/>
			</g>
			<g>
				<circle class="st1" cx="195.6" cy="227" r="27.2"/>
				<path class="st1" d="M195.6,227l0.5,0.7c5.7,6.9,9.1,15.2,10.2,24.4h0.1"/>
				<path class="st1" d="M195.6,227c1.3-13.2,5.8-16.9,12-24.4"/>
				<path class="st1" d="M184.7,228.9c1.5-15.4,6.1-20.3,13.3-29"/>
				<path class="st1" d="M176,228.4c1.5-15.4,5.4-19,12.6-27.8"/>
				<path class="st1" d="M195.6,227c-8.6,3-18.4,2.2-27.2,0"/>
				<path class="st1" d="M198,216c12.4,8.1,16.5,17.7,16.4,30.6"/>
				<path class="st1" d="M202.6,208.5c12.2,5.9,16,14.6,18.6,27.5"/>
				<path class="st1" d="M200.4,233.8c-14.2,6-20.2,5.7-30.9,0.7"/>
				<path class="st1" d="M204.2,242.6c-13,5.3-18.4,4.7-29.4,1.9"/>
			</g>
			<g>
				<circle class="st1" cx="-282.8" cy="244" r="11.7"/>
				<circle class="st1" cx="-282.8" cy="241" r="14.6"/>
				<path class="st1" d="M-302.2,219.7v17.5v-1c0,10.7,8.7,19.4,19.4,19.4c12.9,0,23.3-10.4,23.3-23.3v-6.8v1v-6.8"/>
				<path class="st1" d="M-254.6,203.2v-0.2c0-0.9-0.8-1.7-1.7-1.7h-6.3c-0.9,0-1.7,0.8-1.7,1.7v0.2c0,1.1,0.9,1.9,1.9,1.9l0,0v10.7
					l0,0c-1.1,0-1.9,0.9-1.9,1.9v0.4c0,0.8,0.7,1.5,1.5,1.5h6.7c0.8,0,1.5-0.7,1.5-1.5v-0.4c0-1.1-0.9-1.9-1.9-1.9l0,0v-10.7l0,0
					C-255.5,205.1-254.6,204.2-254.6,203.2z"/>
				<circle cx="-261.4" cy="206.1" r="1"/>
				<circle cx="-257.5" cy="206.1" r="1"/>
				<circle cx="-259.4" cy="208" r="1"/>
				<circle cx="-261.4" cy="210" r="1"/>
				<circle cx="-257.5" cy="210" r="1"/>
				<circle cx="-259.4" cy="211.9" r="1"/>
				<circle cx="-261.4" cy="213.8" r="1"/>
				<circle cx="-257.5" cy="213.8" r="1"/>
				<circle cx="-259.4" cy="215.8" r="1"/>
				<path class="st1" d="M-297.3,203.2v-0.2c0-0.9-0.8-1.7-1.7-1.7h-6.3c-0.9,0-1.7,0.8-1.7,1.7v0.2c0,1.1,0.9,1.9,1.9,1.9l0,0v10.7
					l0,0c-1.1,0-1.9,0.9-1.9,1.9v0.4c0,0.8,0.7,1.5,1.5,1.5h6.7c0.8,0,1.5-0.7,1.5-1.5v-0.4c0-1.1-0.9-1.9-1.9-1.9l0,0v-10.7l0,0
					C-298.2,205.1-297.3,204.2-297.3,203.2z"/>
				<circle cx="-304.1" cy="206.1" r="1"/>
				<circle cx="-300.3" cy="206.1" r="1"/>
				<circle cx="-302.2" cy="208" r="1"/>
				<circle cx="-304.1" cy="210" r="1"/>
				<circle cx="-300.3" cy="210" r="1"/>
				<circle cx="-302.2" cy="211.9" r="1"/>
				<circle cx="-304.1" cy="213.8" r="1"/>
				<circle cx="-300.3" cy="213.8" r="1"/>
				<circle cx="-302.2" cy="215.8" r="1"/>
			</g>
			<g>
				<path class="st2" d="M-110.4,217.8l-3.9-4.3c-0.8-0.6-1.8-0.7-2.7-0.3c-4,1.7-9.3,6.8-18,9c-1.1,0.3-2.2,0.4-3.2,0.5h-7.5
					c-1.5-0.1-2.8,0.8-3.4,2.1v0c-0.6,1.6-0.1,3.4,1.3,4.3c0,0,0.1,0.1,0.1,0.1c4.4,2.9,9.5,4.2,14.7,3.7c3.7-0.3,9.4-1,13.7-1.7
					c2.6-0.5,5.2-0.4,7.7,0.2l5.1,1.2l0.1,0c0.1,0,0.1,0,0.2,0.1c5.5,1.7,13.3-1.3,10.7-10.5c-0.1-0.2-0.2-0.4-0.3-0.7l-2.3-6.2
					c-0.4-1.1-1.9-1.3-2.6-0.4l0,0c-1.3,1.8-3.4,3-5.5,3H-110.4z"/>
				<line class="st2" x1="-144.4" y1="231" x2="-144.4" y2="234.1"/>
				<line class="st2" x1="-140.5" y1="232.3" x2="-140.5" y2="235.1"/>
				<line class="st2" x1="-136.6" y1="235.1" x2="-136.6" y2="232.9"/>
				<line class="st2" x1="-101.6" y1="235.1" x2="-101.6" y2="233"/>
				<line class="st2" x1="-105.5" y1="235.2" x2="-105.5" y2="232.8"/>
				<line class="st2" x1="-109.4" y1="235.2" x2="-109.4" y2="231.8"/>
				<line class="st2" x1="-118.1" y1="222.6" x2="-123.4" y2="217"/>
				<line class="st2" x1="-123" y1="223.6" x2="-127.4" y2="219.2"/>
				<line class="st2" x1="-127.8" y1="224.6" x2="-131.4" y2="221"/>
			</g>
			<g>
				<circle class="st2" cx="36.8" cy="232.4" r="22.7"/>
				<g>
					<g>
						<line class="st2" x1="24.2" y1="217.5" x2="27.6" y2="221.5"/>
						<line class="st2" x1="17.6" y1="229.1" x2="22.7" y2="230"/>
						<line class="st2" x1="19.9" y1="242.5" x2="24.4" y2="239.9"/>
						<line class="st2" x1="30.3" y1="251" x2="32.1" y2="246.1"/>
					</g>
					<g>
						<line class="st2" x1="36.3" y1="213.1" x2="36.3" y2="218.5"/>
						<line class="st2" x1="49.3" y1="217.5" x2="46" y2="221.5"/>
						<line class="st2" x1="55.9" y1="229.1" x2="50.8" y2="230"/>
						<line class="st2" x1="53.7" y1="242.5" x2="49.2" y2="239.9"/>
						<line class="st2" x1="43.2" y1="251" x2="41.5" y2="246.1"/>
					</g>
				</g>
				<path class="st2" d="M38.2,234.2c0.1,0,0.1-0.1,0.2-0.2c0.6-0.6,1-1.5,1-2.3l3.1-6.6l-6.6,3.1c-0.8,0-1.7,0.4-2.3,1
					c-0.1,0.1-0.1,0.1-0.2,0.2l0,0l0,0c-1.1,1.3-1.1,3.3,0.2,4.6S36.8,235.3,38.2,234.2L38.2,234.2L38.2,234.2z"/>
				<path class="st2" d="M17.2,217l-2.7-3.2c-0.6-0.7-0.7-1.7-0.2-2.1l5-4.2c0.5-0.4,1.4-0.2,2.1,0.6l2.7,3.2"/>
				<line class="st2" x1="40.1" y1="206.3" x2="40.1" y2="208.4"/>
				<line class="st2" x1="34" y1="208.5" x2="34" y2="206.3"/>
				<path class="st2" d="M56.2,217l2.7-3.2c0.6-0.7,0.7-1.7,0.2-2.1l-5-4.2c-0.5-0.4-1.4-0.2-2.1,0.6l-2.7,3.2"/>
				<path class="st2" d="M39.8,206h-5.5c-0.9,0-1.7-0.8-1.7-1.7v-3.1c0-0.9,0.8-1.7,1.7-1.7h5.5c0.9,0,1.7,0.8,1.7,1.7v3.1
					C41.5,205.2,40.7,206,39.8,206z"/>
			</g>
			<g>
				<path class="st1" d="M375.8,240.3c0-11.8-9.5-21.2-21.3-21.2c-11.8,0-21.3,9.4-21.3,21.2c0,6.4,2.8,12.2,7.2,15.9h28.1
					C373,252.4,375.8,246.7,375.8,240.3z"/>
				<path class="st1" d="M340.4,221.2c-0.4-1.1-0.7-2.2-0.7-3.4c0-6.9,6.8-12.4,14.5-12.4s14.5,5.6,14.5,12.4c0,1.2-0.2,2.3-0.6,3.4
					"/>
				<path class="st1" d="M373.5,225.6c1.3-2.4,2.1-5,2.1-7.8c0-10.1-9.9-18.3-21.4-18.3s-21.3,8.2-21.3,18.3c0,2.8,0.8,5.4,2.1,7.8"
					/>
			</g>
			<g>
				<g>
					<path class="st2" d="M494.4,251.3h-6.2c-1.3,0-2.3-1.1-2.3-2.3v-38c0-1.3,1.1-2.3,2.3-2.3h6.2c1.3,0,2.3,1.1,2.3,2.3v38
						C496.8,250.2,495.7,251.3,494.4,251.3z"/>
					<path class="st2" d="M483.9,246.5h-5c-1.1,0-2-0.8-2-1.8v-29.6c0-1,0.9-1.8,2-1.8h5"/>
					<path class="st2" d="M474.5,241.6h-2.1c-0.7,0-1.2-0.5-1.2-1v-21.2c0-0.6,0.5-1,1.2-1h2.1"/>
				</g>
				<g>
					<path class="st2" d="M531.9,251.3h6.2c1.3,0,2.3-1.1,2.3-2.3v-38c0-1.3-1.1-2.3-2.3-2.3h-6.2c-1.3,0-2.3,1.1-2.3,2.3v38
						C529.6,250.2,530.6,251.3,531.9,251.3z"/>
					<path class="st2" d="M542.5,246.5h5c1.1,0,2-0.8,2-1.8v-29.6c0-1-0.9-1.8-2-1.8h-5"/>
					<path class="st2" d="M551.8,241.6h2.1c0.7,0,1.2-0.5,1.2-1v-21.2c0-0.6-0.5-1-1.2-1h-2.1"/>
				</g>
				<g>
					<line class="st2" x1="499.3" y1="225.7" x2="526.9" y2="225.7"/>
					<line class="st2" x1="526.9" y1="234.1" x2="499.3" y2="234.1"/>
				</g>
			</g>
		</g>
		<g>
			<g>
				<path class="st1" d="M816,247.9v-3.5c0-24.6,20-44.6,44.6-44.6h3.5c3.5,0,6.3,2.8,6.3,6.3v3.5c0,24.6-20,44.6-44.6,44.6h-3.5
					C818.8,254.2,816,251.4,816,247.9z"/>
				<line class="st2" x1="845.1" y1="207.5" x2="851.9" y2="214.3"/>
				<line class="st2" x1="820.8" y1="235.7" x2="827.6" y2="242.5"/>
				<line class="st2" x1="834.4" y1="214.3" x2="841.2" y2="221.1"/>
				<line class="st2" x1="823.7" y1="229.9" x2="830.5" y2="236.7"/>
				<line class="st2" x1="830.5" y1="219.2" x2="837.3" y2="226"/>
				<line class="st2" x1="839.3" y1="210.4" x2="846.1" y2="217.2"/>
				<line class="st2" x1="826.7" y1="224" x2="833.5" y2="230.8"/>
				<path class="st1" d="M869.2,202.3c-26.8,7.9-39.9,16.2-49.7,51.2"/>
			</g>
			<g>
				<circle class="st1" cx="1954.8" cy="228.4" r="27.2"/>
				<path class="st1" d="M1968.4,228.4c0,6.9,2.6,13.2,6.8,18c4.2-4.8,6.8-11.1,6.8-18c0-6.9-2.6-13.2-6.8-18
					C1970.9,215.3,1968.4,221.5,1968.4,228.4z"/>
				<path class="st1" d="M1927.6,228.4c0,6.9,2.6,13.2,6.8,18c4.2-4.8,6.8-11.1,6.8-18c0-6.9-2.6-13.2-6.8-18
					C1930.1,215.3,1927.6,221.5,1927.6,228.4z"/>
				<line class="st2" x1="1938.2" y1="228.4" x2="1944.1" y2="228.4"/>
				<line class="st2" x1="1937.3" y1="233.3" x2="1944.1" y2="234.3"/>
				<line class="st2" x1="1937.3" y1="223.6" x2="1944.1" y2="222.6"/>
				<line class="st2" x1="1936.3" y1="218.7" x2="1942.1" y2="216.8"/>
				<line class="st2" x1="1936.3" y1="238.2" x2="1942.1" y2="240.1"/>
				<line class="st2" x1="1938.2" y1="228.4" x2="1944.1" y2="228.4"/>
				<line class="st2" x1="1937.3" y1="233.3" x2="1944.1" y2="234.3"/>
				<line class="st2" x1="1937.3" y1="223.6" x2="1944.1" y2="222.6"/>
				<line class="st2" x1="1936.3" y1="218.7" x2="1942.1" y2="216.8"/>
				<line class="st2" x1="1936.3" y1="238.2" x2="1942.1" y2="240.1"/>
				<line class="st2" x1="1971.3" y1="228.4" x2="1965.5" y2="228.4"/>
				<line class="st2" x1="1972.3" y1="223.6" x2="1965.5" y2="222.6"/>
				<line class="st2" x1="1972.3" y1="233.3" x2="1965.5" y2="234.3"/>
				<line class="st2" x1="1973.2" y1="238.2" x2="1967.4" y2="240.1"/>
				<line class="st2" x1="1973.2" y1="218.7" x2="1967.4" y2="216.8"/>
			</g>
			<g>
				<circle class="st1" cx="1478.4" cy="227" r="27.2"/>
				<path class="st1" d="M1478.4,227l0.5,0.7c5.7,6.9,9.1,15.2,10.2,24.4h0.1"/>
				<path class="st1" d="M1478.4,227c1.3-13.2,5.8-16.9,12-24.4"/>
				<path class="st1" d="M1467.5,228.9c1.5-15.4,6.1-20.3,13.3-29"/>
				<path class="st1" d="M1458.8,228.4c1.5-15.4,5.4-19,12.6-27.8"/>
				<path class="st1" d="M1478.4,227c-8.6,3-18.4,2.2-27.2,0"/>
				<path class="st1" d="M1480.8,216c12.4,8.1,16.5,17.7,16.4,30.6"/>
				<path class="st1" d="M1485.4,208.5c12.2,5.9,16,14.6,18.6,27.5"/>
				<path class="st1" d="M1483.1,233.8c-14.2,6-20.2,5.7-30.9,0.7"/>
				<path class="st1" d="M1487,242.6c-13,5.3-18.4,4.7-29.4,1.9"/>
			</g>
			<g>
				<circle class="st1" cx="1000" cy="244" r="11.7"/>
				<circle class="st1" cx="1000" cy="241" r="14.6"/>
				<path class="st1" d="M980.6,219.7v17.5v-1c0,10.7,8.7,19.4,19.4,19.4c12.9,0,23.3-10.4,23.3-23.3v-6.8v1v-6.8"/>
				<path class="st1" d="M1028.2,203.2v-0.2c0-0.9-0.8-1.7-1.7-1.7h-6.3c-0.9,0-1.7,0.8-1.7,1.7v0.2c0,1.1,0.9,1.9,1.9,1.9l0,0v10.7
					l0,0c-1.1,0-1.9,0.9-1.9,1.9v0.4c0,0.8,0.7,1.5,1.5,1.5h6.7c0.8,0,1.5-0.7,1.5-1.5v-0.4c0-1.1-0.9-1.9-1.9-1.9l0,0v-10.7l0,0
					C1027.3,205.1,1028.2,204.2,1028.2,203.2z"/>
				<circle cx="1021.4" cy="206.1" r="1"/>
				<circle cx="1025.3" cy="206.1" r="1"/>
				<circle cx="1023.4" cy="208" r="1"/>
				<circle cx="1021.4" cy="210" r="1"/>
				<circle cx="1025.3" cy="210" r="1"/>
				<circle cx="1023.4" cy="211.9" r="1"/>
				<circle cx="1021.4" cy="213.8" r="1"/>
				<circle cx="1025.3" cy="213.8" r="1"/>
				<circle cx="1023.4" cy="215.8" r="1"/>
				<path class="st1" d="M985.5,203.2v-0.2c0-0.9-0.8-1.7-1.7-1.7h-6.3c-0.9,0-1.7,0.8-1.7,1.7v0.2c0,1.1,0.9,1.9,1.9,1.9l0,0v10.7
					l0,0c-1.1,0-1.9,0.9-1.9,1.9v0.4c0,0.8,0.7,1.5,1.5,1.5h6.7c0.8,0,1.5-0.7,1.5-1.5v-0.4c0-1.1-0.9-1.9-1.9-1.9l0,0v-10.7l0,0
					C984.6,205.1,985.5,204.2,985.5,203.2z"/>
				<circle cx="978.7" cy="206.1" r="1"/>
				<circle cx="982.5" cy="206.1" r="1"/>
				<circle cx="980.6" cy="208" r="1"/>
				<circle cx="978.7" cy="210" r="1"/>
				<circle cx="982.5" cy="210" r="1"/>
				<circle cx="980.6" cy="211.9" r="1"/>
				<circle cx="978.7" cy="213.8" r="1"/>
				<circle cx="982.5" cy="213.8" r="1"/>
				<circle cx="980.6" cy="215.8" r="1"/>
			</g>
			<g>
				<path class="st2" d="M1172.4,217.8l-3.9-4.3c-0.8-0.6-1.8-0.7-2.7-0.3c-4,1.7-9.3,6.8-18,9c-1.1,0.3-2.2,0.4-3.2,0.5h-7.5
					c-1.5-0.1-2.8,0.8-3.4,2.1v0c-0.6,1.6-0.1,3.4,1.3,4.3c0,0,0.1,0.1,0.1,0.1c4.4,2.9,9.5,4.2,14.7,3.7c3.7-0.3,9.4-1,13.7-1.7
					c2.6-0.5,5.2-0.4,7.7,0.2l5.1,1.2l0.1,0c0.1,0,0.1,0,0.2,0.1c5.5,1.7,13.3-1.3,10.7-10.5c-0.1-0.2-0.2-0.4-0.3-0.7l-2.3-6.2
					c-0.4-1.1-1.9-1.3-2.6-0.4l0,0c-1.3,1.8-3.4,3-5.5,3H1172.4z"/>
				<line class="st2" x1="1138.4" y1="231" x2="1138.4" y2="234.1"/>
				<line class="st2" x1="1142.3" y1="232.3" x2="1142.3" y2="235.1"/>
				<line class="st2" x1="1146.2" y1="235.1" x2="1146.2" y2="232.9"/>
				<line class="st2" x1="1181.2" y1="235.1" x2="1181.2" y2="233"/>
				<line class="st2" x1="1177.3" y1="235.2" x2="1177.3" y2="232.8"/>
				<line class="st2" x1="1173.4" y1="235.2" x2="1173.4" y2="231.8"/>
				<line class="st2" x1="1164.7" y1="222.6" x2="1159.4" y2="217"/>
				<line class="st2" x1="1159.8" y1="223.6" x2="1155.4" y2="219.2"/>
				<line class="st2" x1="1154.9" y1="224.6" x2="1151.4" y2="221"/>
			</g>
			<g>
				<circle class="st2" cx="1319.6" cy="232.4" r="22.7"/>
				<g>
					<g>
						<line class="st2" x1="1307" y1="217.5" x2="1310.4" y2="221.5"/>
						<line class="st2" x1="1300.4" y1="229.1" x2="1305.5" y2="230"/>
						<line class="st2" x1="1302.7" y1="242.5" x2="1307.1" y2="239.9"/>
						<line class="st2" x1="1313.1" y1="251" x2="1314.9" y2="246.1"/>
					</g>
					<g>
						<line class="st2" x1="1319.1" y1="213.1" x2="1319.1" y2="218.5"/>
						<line class="st2" x1="1332.1" y1="217.5" x2="1328.8" y2="221.5"/>
						<line class="st2" x1="1338.7" y1="229.1" x2="1333.6" y2="230"/>
						<line class="st2" x1="1336.5" y1="242.5" x2="1332" y2="239.9"/>
						<line class="st2" x1="1326" y1="251" x2="1324.3" y2="246.1"/>
					</g>
				</g>
				<path class="st2" d="M1321,234.2c0.1,0,0.1-0.1,0.2-0.2c0.6-0.6,1-1.5,1-2.3l3.1-6.6l-6.6,3.1c-0.8,0-1.7,0.4-2.3,1
					c-0.1,0.1-0.1,0.1-0.2,0.2l0,0l0,0c-1.1,1.3-1.1,3.3,0.2,4.6C1317.6,235.3,1319.6,235.3,1321,234.2L1321,234.2L1321,234.2z"/>
				<path class="st2" d="M1300,217l-2.7-3.2c-0.6-0.7-0.7-1.7-0.2-2.1l5-4.2c0.5-0.4,1.4-0.2,2.1,0.6l2.7,3.2"/>
				<line class="st2" x1="1322.9" y1="206.3" x2="1322.9" y2="208.4"/>
				<line class="st2" x1="1316.8" y1="208.5" x2="1316.8" y2="206.3"/>
				<path class="st2" d="M1339,217l2.7-3.2c0.6-0.7,0.7-1.7,0.2-2.1l-5-4.2c-0.5-0.4-1.4-0.2-2.1,0.6l-2.7,3.2"/>
				<path class="st2" d="M1322.6,206h-5.5c-0.9,0-1.7-0.8-1.7-1.7v-3.1c0-0.9,0.8-1.7,1.7-1.7h5.5c0.9,0,1.7,0.8,1.7,1.7v3.1
					C1324.3,205.2,1323.5,206,1322.6,206z"/>
			</g>
			<g>
				<path class="st1" d="M1658.6,240.3c0-11.8-9.5-21.2-21.3-21.2c-11.8,0-21.3,9.4-21.3,21.2c0,6.4,2.8,12.2,7.2,15.9h28.1
					C1655.8,252.4,1658.6,246.7,1658.6,240.3z"/>
				<path class="st1" d="M1623.2,221.2c-0.4-1.1-0.7-2.2-0.7-3.4c0-6.9,6.8-12.4,14.5-12.4s14.5,5.6,14.5,12.4
					c0,1.2-0.2,2.3-0.6,3.4"/>
				<path class="st1" d="M1656.3,225.6c1.3-2.4,2.1-5,2.1-7.8c0-10.1-9.9-18.3-21.4-18.3c-11.5,0-21.3,8.2-21.3,18.3
					c0,2.8,0.8,5.4,2.1,7.8"/>
			</g>
			<g>
				<g>
					<path class="st2" d="M1777.2,251.3h-6.2c-1.3,0-2.3-1.1-2.3-2.3v-38c0-1.3,1.1-2.3,2.3-2.3h6.2c1.3,0,2.3,1.1,2.3,2.3v38
						C1779.6,250.2,1778.5,251.3,1777.2,251.3z"/>
					<path class="st2" d="M1766.7,246.5h-5c-1.1,0-2-0.8-2-1.8v-29.6c0-1,0.9-1.8,2-1.8h5"/>
					<path class="st2" d="M1757.3,241.6h-2.1c-0.7,0-1.2-0.5-1.2-1v-21.2c0-0.6,0.5-1,1.2-1h2.1"/>
				</g>
				<g>
					<path class="st2" d="M1814.7,251.3h6.2c1.3,0,2.3-1.1,2.3-2.3v-38c0-1.3-1.1-2.3-2.3-2.3h-6.2c-1.3,0-2.3,1.1-2.3,2.3v38
						C1812.4,250.2,1813.4,251.3,1814.7,251.3z"/>
					<path class="st2" d="M1825.2,246.5h5c1.1,0,2-0.8,2-1.8v-29.6c0-1-0.9-1.8-2-1.8h-5"/>
					<path class="st2" d="M1834.6,241.6h2.1c0.7,0,1.2-0.5,1.2-1v-21.2c0-0.6-0.5-1-1.2-1h-2.1"/>
				</g>
				<g>
					<line class="st2" x1="1782.1" y1="225.7" x2="1809.7" y2="225.7"/>
					<line class="st2" x1="1809.7" y1="234.1" x2="1782.1" y2="234.1"/>
				</g>
			</g>
		</g>
	</g>
	<g>
		<g>
			<g>
				<path class="st1" d="M-75.8,342.9v-3.5c0-24.6,20-44.6,44.6-44.6h3.5c3.5,0,6.3,2.8,6.3,6.3v3.5c0,24.6-20,44.6-44.6,44.6h-3.5
					C-73,349.1-75.8,346.3-75.8,342.9z"/>
				<line class="st2" x1="-46.7" y1="302.5" x2="-39.9" y2="309.3"/>
				<line class="st2" x1="-71" y1="330.7" x2="-64.2" y2="337.5"/>
				<line class="st2" x1="-57.4" y1="309.3" x2="-50.6" y2="316.1"/>
				<line class="st2" x1="-68.1" y1="324.8" x2="-61.3" y2="331.6"/>
				<line class="st2" x1="-61.3" y1="314.2" x2="-54.5" y2="321"/>
				<line class="st2" x1="-52.5" y1="305.4" x2="-45.7" y2="312.2"/>
				<line class="st2" x1="-65.2" y1="319" x2="-58.4" y2="325.8"/>
				<path class="st1" d="M-22.6,297.3c-26.8,7.9-39.9,16.2-49.7,51.2"/>
			</g>
			<g>
				<circle class="st1" cx="1062.9" cy="323.4" r="27.2"/>
				<path class="st1" d="M1076.5,323.4c0,6.9,2.6,13.2,6.8,18c4.2-4.8,6.8-11.1,6.8-18c0-6.9-2.6-13.2-6.8-18
					C1079.1,310.2,1076.5,316.5,1076.5,323.4z"/>
				<path class="st1" d="M1035.7,323.4c0,6.9,2.6,13.2,6.8,18c4.2-4.8,6.8-11.1,6.8-18c0-6.9-2.6-13.2-6.8-18
					C1038.3,310.2,1035.7,316.5,1035.7,323.4z"/>
				<line class="st2" x1="1046.4" y1="323.4" x2="1052.3" y2="323.4"/>
				<line class="st2" x1="1045.5" y1="328.3" x2="1052.3" y2="329.2"/>
				<line class="st2" x1="1045.5" y1="318.6" x2="1052.3" y2="317.6"/>
				<line class="st2" x1="1044.5" y1="313.7" x2="1050.3" y2="311.7"/>
				<line class="st2" x1="1044.5" y1="333.1" x2="1050.3" y2="335.1"/>
				<line class="st2" x1="1046.4" y1="323.4" x2="1052.3" y2="323.4"/>
				<line class="st2" x1="1045.5" y1="328.3" x2="1052.3" y2="329.2"/>
				<line class="st2" x1="1045.5" y1="318.6" x2="1052.3" y2="317.6"/>
				<line class="st2" x1="1044.5" y1="313.7" x2="1050.3" y2="311.7"/>
				<line class="st2" x1="1044.5" y1="333.1" x2="1050.3" y2="335.1"/>
				<line class="st2" x1="1079.5" y1="323.4" x2="1073.6" y2="323.4"/>
				<line class="st2" x1="1080.4" y1="318.6" x2="1073.6" y2="317.6"/>
				<line class="st2" x1="1080.4" y1="328.3" x2="1073.6" y2="329.2"/>
				<line class="st2" x1="1081.4" y1="333.1" x2="1075.6" y2="335.1"/>
				<line class="st2" x1="1081.4" y1="313.7" x2="1075.6" y2="311.7"/>
			</g>
			<g>
				<circle class="st1" cx="586.6" cy="321.9" r="27.2"/>
				<path class="st1" d="M586.6,321.9l0.5,0.7c5.7,6.9,9.1,15.2,10.2,24.4h0.1"/>
				<path class="st1" d="M586.6,321.9c1.3-13.2,5.8-16.9,12-24.4"/>
				<path class="st1" d="M575.7,323.9c1.5-15.4,6.1-20.3,13.3-29"/>
				<path class="st1" d="M567,323.4c1.5-15.4,5.4-19,12.6-27.8"/>
				<path class="st1" d="M586.6,321.9c-8.6,3-18.4,2.2-27.2,0"/>
				<path class="st1" d="M589,311c12.4,8.1,16.5,17.7,16.4,30.6"/>
				<path class="st1" d="M593.6,303.5c12.2,5.9,16,14.6,18.6,27.5"/>
				<path class="st1" d="M591.3,328.7c-14.2,6-20.2,5.7-30.9,0.7"/>
				<path class="st1" d="M595.1,337.5c-13,5.3-18.4,4.7-29.4,1.9"/>
			</g>
			<g>
				<circle class="st1" cx="108.2" cy="338.9" r="11.7"/>
				<circle class="st1" cx="108.2" cy="336" r="14.6"/>
				<path class="st1" d="M88.8,314.6v17.5v-1c0,10.7,8.7,19.4,19.4,19.4c12.9,0,23.3-10.4,23.3-23.3v-6.8v1v-6.8"/>
				<path class="st1" d="M136.4,298.1v-0.2c0-0.9-0.8-1.7-1.7-1.7h-6.3c-0.9,0-1.7,0.8-1.7,1.7v0.2c0,1.1,0.9,1.9,1.9,1.9l0,0v10.7
					l0,0c-1.1,0-1.9,0.9-1.9,1.9v0.4c0,0.8,0.7,1.5,1.5,1.5h6.7c0.8,0,1.5-0.7,1.5-1.5v-0.4c0-1.1-0.9-1.9-1.9-1.9l0,0v-10.7l0,0
					C135.5,300.1,136.4,299.2,136.4,298.1z"/>
				<circle cx="129.6" cy="301" r="1"/>
				<circle cx="133.5" cy="301" r="1"/>
				<circle cx="131.5" cy="303" r="1"/>
				<circle cx="129.6" cy="304.9" r="1"/>
				<circle cx="133.5" cy="304.9" r="1"/>
				<circle cx="131.5" cy="306.9" r="1"/>
				<circle cx="129.6" cy="308.8" r="1"/>
				<circle cx="133.5" cy="308.8" r="1"/>
				<circle cx="131.5" cy="310.8" r="1"/>
				<path class="st1" d="M93.6,298.1v-0.2c0-0.9-0.8-1.7-1.7-1.7h-6.3c-0.9,0-1.7,0.8-1.7,1.7v0.2c0,1.1,0.9,1.9,1.9,1.9l0,0v10.7
					l0,0c-1.1,0-1.9,0.9-1.9,1.9v0.4c0,0.8,0.7,1.5,1.5,1.5h6.7c0.8,0,1.5-0.7,1.5-1.5v-0.4c0-1.1-0.9-1.9-1.9-1.9l0,0v-10.7l0,0
					C92.8,300.1,93.6,299.2,93.6,298.1z"/>
				<circle cx="86.8" cy="301" r="1"/>
				<circle cx="90.7" cy="301" r="1"/>
				<circle cx="88.8" cy="303" r="1"/>
				<circle cx="86.8" cy="304.9" r="1"/>
				<circle cx="90.7" cy="304.9" r="1"/>
				<circle cx="88.8" cy="306.9" r="1"/>
				<circle cx="86.8" cy="308.8" r="1"/>
				<circle cx="90.7" cy="308.8" r="1"/>
				<circle cx="88.8" cy="310.8" r="1"/>
			</g>
			<g>
				<path class="st2" d="M280.6,312.7l-3.9-4.3c-0.8-0.6-1.8-0.7-2.7-0.3c-4,1.7-9.3,6.8-18,9c-1.1,0.3-2.2,0.4-3.2,0.5h-7.5
					c-1.5-0.1-2.8,0.8-3.4,2.1l0,0c-0.6,1.6-0.1,3.4,1.3,4.3c0,0,0.1,0.1,0.1,0.1c4.4,2.9,9.5,4.2,14.7,3.7c3.7-0.3,9.4-1,13.7-1.7
					c2.6-0.5,5.2-0.4,7.7,0.2l5.1,1.2l0.1,0c0.1,0,0.1,0,0.2,0.1c5.5,1.7,13.3-1.3,10.7-10.5c-0.1-0.2-0.2-0.4-0.3-0.7l-2.3-6.2
					c-0.4-1.1-1.9-1.3-2.6-0.4l0,0c-1.3,1.8-3.4,3-5.5,3H280.6z"/>
				<line class="st2" x1="246.6" y1="326" x2="246.6" y2="329.1"/>
				<line class="st2" x1="250.5" y1="327.3" x2="250.5" y2="330.1"/>
				<line class="st2" x1="254.4" y1="330.1" x2="254.4" y2="327.9"/>
				<line class="st2" x1="289.4" y1="330.1" x2="289.4" y2="327.9"/>
				<line class="st2" x1="285.5" y1="330.2" x2="285.5" y2="327.7"/>
				<line class="st2" x1="281.6" y1="330.2" x2="281.6" y2="326.8"/>
				<line class="st2" x1="272.8" y1="317.6" x2="267.6" y2="311.9"/>
				<line class="st2" x1="268" y1="318.6" x2="263.6" y2="314.2"/>
				<line class="st2" x1="263.1" y1="319.5" x2="259.6" y2="316"/>
			</g>
			<g>
				<circle class="st2" cx="427.8" cy="327.4" r="22.7"/>
				<g>
					<g>
						<line class="st2" x1="415.2" y1="312.5" x2="418.5" y2="316.5"/>
						<line class="st2" x1="408.6" y1="324" x2="413.7" y2="324.9"/>
						<line class="st2" x1="410.8" y1="337.4" x2="415.3" y2="334.8"/>
						<line class="st2" x1="421.3" y1="345.9" x2="423.1" y2="341.1"/>
					</g>
					<g>
						<line class="st2" x1="427.3" y1="308" x2="427.3" y2="313.5"/>
						<line class="st2" x1="440.3" y1="312.5" x2="437" y2="316.5"/>
						<line class="st2" x1="446.9" y1="324" x2="441.8" y2="324.9"/>
						<line class="st2" x1="444.7" y1="337.4" x2="440.2" y2="334.8"/>
						<line class="st2" x1="434.2" y1="345.9" x2="432.4" y2="341.1"/>
					</g>
				</g>
				<path class="st2" d="M429.1,329.1c0.1,0,0.1-0.1,0.2-0.2c0.6-0.6,1-1.5,1-2.3l3.1-6.6l-6.6,3.1c-0.8,0-1.7,0.4-2.3,1
					c-0.1,0.1-0.1,0.1-0.2,0.2l0,0l0,0c-1.1,1.3-1.1,3.3,0.2,4.6C425.8,330.2,427.8,330.3,429.1,329.1L429.1,329.1L429.1,329.1z"/>
				<path class="st2" d="M408.2,312l-2.7-3.2c-0.6-0.7-0.7-1.7-0.2-2.1l5-4.2c0.5-0.4,1.4-0.2,2.1,0.6l2.7,3.2"/>
				<line class="st2" x1="431.1" y1="301.3" x2="431.1" y2="303.4"/>
				<line class="st2" x1="425" y1="303.4" x2="424.9" y2="301.3"/>
				<path class="st2" d="M447.2,312l2.7-3.2c0.6-0.7,0.7-1.7,0.2-2.1l-5-4.2c-0.5-0.4-1.4-0.2-2.1,0.6l-2.7,3.2"/>
				<path class="st2" d="M430.7,301h-5.5c-0.9,0-1.7-0.8-1.7-1.7v-3.1c0-0.9,0.8-1.7,1.7-1.7h5.5c0.9,0,1.7,0.8,1.7,1.7v3.1
					C432.5,300.2,431.7,301,430.7,301z"/>
			</g>
			<g>
				<path class="st1" d="M766.8,335.3c0-11.8-9.5-21.2-21.3-21.2c-11.8,0-21.3,9.4-21.3,21.2c0,6.4,2.8,12.2,7.2,15.9h28.1
					C764,347.4,766.8,341.7,766.8,335.3z"/>
				<path class="st1" d="M731.4,316.2c-0.4-1.1-0.7-2.2-0.7-3.4c0-6.9,6.8-12.4,14.5-12.4s14.5,5.6,14.5,12.4c0,1.2-0.2,2.3-0.6,3.4
					"/>
				<path class="st1" d="M764.5,320.5c1.3-2.4,2.1-5,2.1-7.8c0-10.1-9.9-18.3-21.4-18.3s-21.3,8.2-21.3,18.3c0,2.8,0.8,5.4,2.1,7.8"
					/>
			</g>
			<g>
				<g>
					<path class="st2" d="M885.4,346.3h-6.2c-1.3,0-2.3-1.1-2.3-2.3v-38c0-1.3,1.1-2.3,2.3-2.3h6.2c1.3,0,2.3,1.1,2.3,2.3v38
						C887.7,345.2,886.7,346.3,885.4,346.3z"/>
					<path class="st2" d="M874.9,341.5h-5c-1.1,0-2-0.8-2-1.8v-29.6c0-1,0.9-1.8,2-1.8h5"/>
					<path class="st2" d="M865.5,336.6h-2.1c-0.7,0-1.2-0.5-1.2-1v-21.2c0-0.6,0.5-1,1.2-1h2.1"/>
				</g>
				<g>
					<path class="st2" d="M922.9,346.3h6.2c1.3,0,2.3-1.1,2.3-2.3v-38c0-1.3-1.1-2.3-2.3-2.3h-6.2c-1.3,0-2.3,1.1-2.3,2.3v38
						C920.6,345.2,921.6,346.3,922.9,346.3z"/>
					<path class="st2" d="M933.4,341.5h5c1.1,0,2-0.8,2-1.8v-29.6c0-1-0.9-1.8-2-1.8h-5"/>
					<path class="st2" d="M942.8,336.6h2.1c0.7,0,1.2-0.5,1.2-1v-21.2c0-0.6-0.5-1-1.2-1h-2.1"/>
				</g>
				<g>
					<line class="st2" x1="890.3" y1="320.7" x2="917.9" y2="320.7"/>
					<line class="st2" x1="917.9" y1="329.1" x2="890.3" y2="329.1"/>
				</g>
			</g>
		</g>
		<g>
			<g>
				<path class="st1" d="M1206.9,342.9v-3.5c0-24.6,20-44.6,44.6-44.6h3.5c3.5,0,6.3,2.8,6.3,6.3v3.5c0,24.6-20,44.6-44.6,44.6h-3.5
					C1209.7,349.1,1206.9,346.3,1206.9,342.9z"/>
				<line class="st2" x1="1236.1" y1="302.5" x2="1242.9" y2="309.3"/>
				<line class="st2" x1="1211.8" y1="330.7" x2="1218.6" y2="337.5"/>
				<line class="st2" x1="1225.4" y1="309.3" x2="1232.2" y2="316.1"/>
				<line class="st2" x1="1214.7" y1="324.8" x2="1221.5" y2="331.6"/>
				<line class="st2" x1="1221.5" y1="314.2" x2="1228.3" y2="321"/>
				<line class="st2" x1="1230.3" y1="305.4" x2="1237.1" y2="312.2"/>
				<line class="st2" x1="1217.6" y1="319" x2="1224.4" y2="325.8"/>
				<path class="st1" d="M1260.2,297.3c-26.8,7.9-39.9,16.2-49.7,51.2"/>
			</g>
			<g>
				<circle class="st1" cx="2345.7" cy="323.4" r="27.2"/>
				<path class="st1" d="M2359.3,323.4c0,6.9,2.6,13.2,6.8,18c4.2-4.8,6.8-11.1,6.8-18c0-6.9-2.6-13.2-6.8-18
					C2361.9,310.2,2359.3,316.5,2359.3,323.4z"/>
				<path class="st1" d="M2318.5,323.4c0,6.9,2.6,13.2,6.8,18c4.2-4.8,6.8-11.1,6.8-18c0-6.9-2.6-13.2-6.8-18
					C2321.1,310.2,2318.5,316.5,2318.5,323.4z"/>
				<line class="st2" x1="2329.2" y1="323.4" x2="2335.1" y2="323.4"/>
				<line class="st2" x1="2328.2" y1="328.3" x2="2335.1" y2="329.2"/>
				<line class="st2" x1="2328.2" y1="318.6" x2="2335.1" y2="317.6"/>
				<line class="st2" x1="2327.3" y1="313.7" x2="2333.1" y2="311.7"/>
				<line class="st2" x1="2327.3" y1="333.1" x2="2333.1" y2="335.1"/>
				<line class="st2" x1="2329.2" y1="323.4" x2="2335.1" y2="323.4"/>
				<line class="st2" x1="2328.2" y1="328.3" x2="2335.1" y2="329.2"/>
				<line class="st2" x1="2328.2" y1="318.6" x2="2335.1" y2="317.6"/>
				<line class="st2" x1="2327.3" y1="313.7" x2="2333.1" y2="311.7"/>
				<line class="st2" x1="2327.3" y1="333.1" x2="2333.1" y2="335.1"/>
				<line class="st2" x1="2362.3" y1="323.4" x2="2356.4" y2="323.4"/>
				<line class="st2" x1="2363.2" y1="318.6" x2="2356.4" y2="317.6"/>
				<line class="st2" x1="2363.2" y1="328.3" x2="2356.4" y2="329.2"/>
				<line class="st2" x1="2364.2" y1="333.1" x2="2358.4" y2="335.1"/>
				<line class="st2" x1="2364.2" y1="313.7" x2="2358.4" y2="311.7"/>
			</g>
			<g>
				<circle class="st1" cx="1869.3" cy="321.9" r="27.2"/>
				<path class="st1" d="M1869.3,321.9l0.5,0.7c5.7,6.9,9.1,15.2,10.2,24.4h0.1"/>
				<path class="st1" d="M1869.3,321.9c1.3-13.2,5.8-16.9,12-24.4"/>
				<path class="st1" d="M1858.5,323.9c1.5-15.4,6.1-20.3,13.3-29"/>
				<path class="st1" d="M1849.8,323.4c1.5-15.4,5.4-19,12.6-27.8"/>
				<path class="st1" d="M1869.3,321.9c-8.6,3-18.4,2.2-27.2,0"/>
				<path class="st1" d="M1871.8,311c12.4,8.1,16.5,17.7,16.4,30.6"/>
				<path class="st1" d="M1876.4,303.5c12.2,5.9,16,14.6,18.6,27.5"/>
				<path class="st1" d="M1874.1,328.7c-14.2,6-20.2,5.7-30.9,0.7"/>
				<path class="st1" d="M1877.9,337.5c-13,5.3-18.4,4.7-29.4,1.9"/>
			</g>
			<g>
				<circle class="st1" cx="1391" cy="338.9" r="11.7"/>
				<circle class="st1" cx="1391" cy="336" r="14.6"/>
				<path class="st1" d="M1371.6,314.6v17.5v-1c0,10.7,8.7,19.4,19.4,19.4c12.9,0,23.3-10.4,23.3-23.3v-6.8v1v-6.8"/>
				<path class="st1" d="M1419.2,298.1v-0.2c0-0.9-0.8-1.7-1.7-1.7h-6.3c-0.9,0-1.7,0.8-1.7,1.7v0.2c0,1.1,0.9,1.9,1.9,1.9l0,0v10.7
					l0,0c-1.1,0-1.9,0.9-1.9,1.9v0.4c0,0.8,0.7,1.5,1.5,1.5h6.7c0.8,0,1.5-0.7,1.5-1.5v-0.4c0-1.1-0.9-1.9-1.9-1.9l0,0v-10.7l0,0
					C1418.3,300.1,1419.2,299.2,1419.2,298.1z"/>
				<circle cx="1412.4" cy="301" r="1"/>
				<circle cx="1416.3" cy="301" r="1"/>
				<circle cx="1414.3" cy="303" r="1"/>
				<circle cx="1412.4" cy="304.9" r="1"/>
				<circle cx="1416.3" cy="304.9" r="1"/>
				<circle cx="1414.3" cy="306.9" r="1"/>
				<circle cx="1412.4" cy="308.8" r="1"/>
				<circle cx="1416.3" cy="308.8" r="1"/>
				<circle cx="1414.3" cy="310.8" r="1"/>
				<path class="st1" d="M1376.4,298.1v-0.2c0-0.9-0.8-1.7-1.7-1.7h-6.3c-0.9,0-1.7,0.8-1.7,1.7v0.2c0,1.1,0.9,1.9,1.9,1.9l0,0v10.7
					l0,0c-1.1,0-1.9,0.9-1.9,1.9v0.4c0,0.8,0.7,1.5,1.5,1.5h6.7c0.8,0,1.5-0.7,1.5-1.5v-0.4c0-1.1-0.9-1.9-1.9-1.9l0,0v-10.7l0,0
					C1375.6,300.1,1376.4,299.2,1376.4,298.1z"/>
				<circle cx="1369.6" cy="301" r="1"/>
				<circle cx="1373.5" cy="301" r="1"/>
				<circle cx="1371.6" cy="303" r="1"/>
				<circle cx="1369.6" cy="304.9" r="1"/>
				<circle cx="1373.5" cy="304.9" r="1"/>
				<circle cx="1371.6" cy="306.9" r="1"/>
				<circle cx="1369.6" cy="308.8" r="1"/>
				<circle cx="1373.5" cy="308.8" r="1"/>
				<circle cx="1371.6" cy="310.8" r="1"/>
			</g>
			<g>
				<path class="st2" d="M1563.4,312.7l-3.9-4.3c-0.8-0.6-1.8-0.7-2.7-0.3c-4,1.7-9.3,6.8-18,9c-1.1,0.3-2.2,0.4-3.2,0.5h-7.5
					c-1.5-0.1-2.8,0.8-3.4,2.1l0,0c-0.6,1.6-0.1,3.4,1.3,4.3c0,0,0.1,0.1,0.1,0.1c4.4,2.9,9.5,4.2,14.7,3.7c3.7-0.3,9.4-1,13.7-1.7
					c2.6-0.5,5.2-0.4,7.7,0.2l5.1,1.2l0.1,0c0.1,0,0.1,0,0.2,0.1c5.5,1.7,13.3-1.3,10.7-10.5c-0.1-0.2-0.2-0.4-0.3-0.7l-2.3-6.2
					c-0.4-1.1-1.9-1.3-2.6-0.4l0,0c-1.3,1.8-3.4,3-5.5,3H1563.4z"/>
				<line class="st2" x1="1529.4" y1="326" x2="1529.4" y2="329.1"/>
				<line class="st2" x1="1533.3" y1="327.3" x2="1533.3" y2="330.1"/>
				<line class="st2" x1="1537.2" y1="330.1" x2="1537.2" y2="327.9"/>
				<line class="st2" x1="1572.2" y1="330.1" x2="1572.2" y2="327.9"/>
				<line class="st2" x1="1568.3" y1="330.2" x2="1568.3" y2="327.7"/>
				<line class="st2" x1="1564.4" y1="330.2" x2="1564.4" y2="326.8"/>
				<line class="st2" x1="1555.6" y1="317.6" x2="1550.4" y2="311.9"/>
				<line class="st2" x1="1550.8" y1="318.6" x2="1546.4" y2="314.2"/>
				<line class="st2" x1="1545.9" y1="319.5" x2="1542.4" y2="316"/>
			</g>
			<g>
				<circle class="st2" cx="1710.6" cy="327.4" r="22.7"/>
				<g>
					<g>
						<line class="st2" x1="1698" y1="312.5" x2="1701.3" y2="316.5"/>
						<line class="st2" x1="1691.4" y1="324" x2="1696.5" y2="324.9"/>
						<line class="st2" x1="1693.6" y1="337.4" x2="1698.1" y2="334.8"/>
						<line class="st2" x1="1704.1" y1="345.9" x2="1705.9" y2="341.1"/>
					</g>
					<g>
						<line class="st2" x1="1710.1" y1="308" x2="1710.1" y2="313.5"/>
						<line class="st2" x1="1723.1" y1="312.5" x2="1719.8" y2="316.5"/>
						<line class="st2" x1="1729.7" y1="324" x2="1724.6" y2="324.9"/>
						<line class="st2" x1="1727.5" y1="337.4" x2="1723" y2="334.8"/>
						<line class="st2" x1="1717" y1="345.9" x2="1715.2" y2="341.1"/>
					</g>
				</g>
				<path class="st2" d="M1711.9,329.1c0.1,0,0.1-0.1,0.2-0.2c0.6-0.6,1-1.5,1-2.3l3.1-6.6l-6.6,3.1c-0.8,0-1.7,0.4-2.3,1
					c-0.1,0.1-0.1,0.1-0.2,0.2l0,0l0,0c-1.1,1.3-1.1,3.3,0.2,4.6C1708.6,330.2,1710.6,330.3,1711.9,329.1L1711.9,329.1L1711.9,329.1
					z"/>
				<path class="st2" d="M1691,312l-2.7-3.2c-0.6-0.7-0.7-1.7-0.2-2.1l5-4.2c0.5-0.4,1.4-0.2,2.1,0.6l2.7,3.2"/>
				<line class="st2" x1="1713.9" y1="301.3" x2="1713.9" y2="303.4"/>
				<line class="st2" x1="1707.7" y1="303.4" x2="1707.7" y2="301.3"/>
				<path class="st2" d="M1730,312l2.7-3.2c0.6-0.7,0.7-1.7,0.2-2.1l-5-4.2c-0.5-0.4-1.4-0.2-2.1,0.6l-2.7,3.2"/>
				<path class="st2" d="M1713.5,301h-5.5c-0.9,0-1.7-0.8-1.7-1.7v-3.1c0-0.9,0.8-1.7,1.7-1.7h5.5c0.9,0,1.7,0.8,1.7,1.7v3.1
					C1715.3,300.2,1714.5,301,1713.5,301z"/>
			</g>
			<g>
				<path class="st1" d="M2049.6,335.3c0-11.8-9.5-21.2-21.3-21.2c-11.8,0-21.3,9.4-21.3,21.2c0,6.4,2.8,12.2,7.2,15.9h28.1
					C2046.8,347.4,2049.6,341.7,2049.6,335.3z"/>
				<path class="st1" d="M2014.2,316.2c-0.4-1.1-0.7-2.2-0.7-3.4c0-6.9,6.8-12.4,14.5-12.4s14.5,5.6,14.5,12.4
					c0,1.2-0.2,2.3-0.6,3.4"/>
				<path class="st1" d="M2047.3,320.5c1.3-2.4,2.1-5,2.1-7.8c0-10.1-9.9-18.3-21.4-18.3c-11.5,0-21.3,8.2-21.3,18.3
					c0,2.8,0.8,5.4,2.1,7.8"/>
			</g>
			<g>
				<g>
					<path class="st2" d="M2168.2,346.3h-6.2c-1.3,0-2.3-1.1-2.3-2.3v-38c0-1.3,1.1-2.3,2.3-2.3h6.2c1.3,0,2.3,1.1,2.3,2.3v38
						C2170.5,345.2,2169.5,346.3,2168.2,346.3z"/>
					<path class="st2" d="M2157.7,341.5h-5c-1.1,0-2-0.8-2-1.8v-29.6c0-1,0.9-1.8,2-1.8h5"/>
					<path class="st2" d="M2148.3,336.6h-2.1c-0.7,0-1.2-0.5-1.2-1v-21.2c0-0.6,0.5-1,1.2-1h2.1"/>
				</g>
				<g>
					<path class="st2" d="M2205.7,346.3h6.2c1.3,0,2.3-1.1,2.3-2.3v-38c0-1.3-1.1-2.3-2.3-2.3h-6.2c-1.3,0-2.3,1.1-2.3,2.3v38
						C2203.3,345.2,2204.4,346.3,2205.7,346.3z"/>
					<path class="st2" d="M2216.2,341.5h5c1.1,0,2-0.8,2-1.8v-29.6c0-1-0.9-1.8-2-1.8h-5"/>
					<path class="st2" d="M2225.6,336.6h2.1c0.7,0,1.2-0.5,1.2-1v-21.2c0-0.6-0.5-1-1.2-1h-2.1"/>
				</g>
				<g>
					<line class="st2" x1="2173.1" y1="320.7" x2="2200.7" y2="320.7"/>
					<line class="st2" x1="2200.7" y1="329.1" x2="2173.1" y2="329.1"/>
				</g>
			</g>
		</g>
	</g>
</g>
</svg>
