<?xml version="1.0" encoding="utf-8"?>
<!-- Generator: Adobe Illustrator 19.2.0, SVG Export Plug-In . SVG Version: 6.00 Build 0)  -->
<svg version="1.1" id="Layer_1" xmlns="http://www.w3.org/2000/svg" xmlns:xlink="http://www.w3.org/1999/xlink" x="0px" y="0px"
	 viewBox="0 0 72.3 72.3" style="enable-background:new 0 0 72.3 72.3;" xml:space="preserve">
<style type="text/css">
	.st0{fill:#FFFFFF;}
</style>
<g>
	<path class="st0" d="M5.9,30.3c-0.9-0.3-1.5-0.6-1.6-1.5c-0.1-1.4,1.3-1.5,2.1-2.3c-0.2-0.1-0.3-0.1-0.5-0.2
		c-0.2-0.1-0.3-0.1-0.5-0.2c-1.1-0.5-1.3-1.7-0.4-2.5c0.7-0.5,1.5-1,2.2-1.5c0.4-0.2,0.4-0.5,0.3-0.9c-0.5-1.2,0-2,1.3-2.1
		c0.6,0,1-0.2,1.4-0.7c0.9-1.1,2-1.9,3.5-2c0.1-0.7,0.4-1.2,1.1-1.5c0.2-0.1,0.3-0.4,0.3-0.6c0.2-1.2,1.1-1.7,2.1-1.2
		c0.6,0.3,0.9,0.1,1.1-0.5c0-0.1,0.1-0.3,0.1-0.4c0.4-1.5,1.1-1.9,2.6-1.3c0.1,0,0.2,0.1,0.4,0.2c0.1-0.9,0.1-1.8,0.2-2.6
		C21.7,8.3,22,8,22.2,7.6c0.1-0.2,0.3-0.4,0.4-0.6c0.4-0.6,0.7-1.2,1.1-1.8c0.4-0.6,1.1-0.8,1.8-0.5c0.7,0.3,0.9,0.9,0.8,1.6
		c-0.1,0.8-0.3,1.6-0.5,2.5c1.2,0.2,1.2,1.2,1.5,2.2c0.3-0.2,0.5-0.4,0.7-0.5c0.6-0.3,1.2-0.6,1.8-0.8c1.1-0.2,1.8-0.8,2-1.9
		c0.1-0.4,0.2-0.8,0.3-1.3c0.2-0.6,0.6-1,1.3-1c0.7,0,1.1,0.2,1.4,0.9c0.2,0.5,0.3,1,0.6,1.5c0.2-0.8,0.4-1.5,0.5-2.3
		C35.9,4.9,36.1,4.2,37,4c0.7-0.2,1.3,0.1,1.9,1.1c2.3-1.7,2.5-1.7,3.6,0.5c1.6-0.2,1.8-0.1,2.4,1.3c0.9-0.6,1.8-1.1,2.7-1.7
		c0.6-0.4,1.2-0.4,1.8,0c0.5,0.4,0.7,1,0.5,1.6c-0.1,0.4-0.3,0.8-0.4,1.3c0.4,0.1,0.7,0.1,1,0.2c0.9,0.3,1.2,1,1,1.8
		c-0.2,0.8-0.4,1.6-0.6,2.4c0.3,0.1,0.6,0.1,0.9,0.2c0.4,0.2,0.9,0.5,1.3,0.7c0.2,0.1,0.3,0.2,0.5,0.3c0.8,0.3,1.1,0.8,1,1.7
		c0,0.5,0.1,1.1,0.2,1.8c0.6-0.4,1-0.7,1.4-0.9c0.6-0.3,1.2-0.4,1.7,0c0.5,0.4,0.6,0.9,0.5,1.6c-0.1,0.3,0.2,0.7,0.3,1.1
		c0.5-0.3,0.9-0.6,1.3-0.8c1-0.6,1.9-0.3,2.3,0.8c0.1,0.2,0.3,0.3,0.4,0.5c0.6,0.9,1.4,1.1,2.5,1.2c1,0.1,1.2,1,0.7,2.4
		c0.3,0,0.6-0.1,0.9,0c0.4,0.1,0.9,0.3,1,0.5c0.3,0.7,0.8,0.9,1.4,1.3c0.5,0.3,0.8,0.9,0.6,1.4c-0.2,0.4-0.5,1-0.9,1.1
		c-1.9,0.6-3.8,1.2-5.6,1.7c0.3,1.3,0.5,2.6,0.8,3.8c0.3,1,0.3,2.1,1.3,2.7c0.4,0.2,0.6,0.7,0.8,1.1c0.3,0.9-0.3,1.5-1.4,1.8
		c-0.1,0.5-0.2,1-0.3,1.6c0.9,0.8,2.7,1.2,1.7,3.2c1.1,0.7,1,1.7,0.4,2.7c-0.1,0.1-0.1,0.4,0,0.5c0.5,0.6,0.8,1.2,0.4,1.9
		c-0.3,0.7-1,0.8-1.9,0.7c0.2,0.3,0.4,0.5,0.5,0.6c0.4,0.5,0.9,0.8,1.1,1.4c0.2,0.5,0.1,1.2-0.2,1.5c-0.2,0.3-0.9,0.5-1.4,0.5
		c-0.6,0-1.3-0.2-1.9-0.3c-0.5,1.5-0.8,1.7-2,1.7c-0.1,0.8-0.2,1.5-1.1,1.8c-0.1,0-0.1,0.2-0.1,0.3c-0.3,0.7-0.5,1.5-1,2.2
		c-0.3,0.4-0.9,0.5-1.5,0.6c-0.3,0.4-0.6,0.8-0.8,1.1c-0.1,0.1-0.2,0.2-0.1,0.3c0.2,0.9-0.3,1.5-0.8,2.1c-0.7,0.8-1.5,0.8-2.3,0.1
		c-0.4-0.4-0.8-0.9-1.1-1.3c-0.8-1-1.3-1-2.5-0.4c-1.2,0.6-2.3,1.3-3.7,1.1c-0.1,0-0.2,0-0.3,0.1c-1,1.2-2.5,0.9-3.7,1.3
		c-0.8,0.2-1.7,0.3-2.4,1c-0.6,0.7-1.4,0.4-2.2-0.1c0.2,1.1,0.1,1.9-1.1,2.4c-1.1,0.5-1.9,0-2.8-0.4c-0.9,0.9-1.7,1.3-2.9,0
		c-0.3-0.3-0.5-0.5-1-0.3c-0.7,0.2-1.4-0.1-1.6-0.7c-0.2-0.6-0.8-0.8-1.2-0.7c-1.1,0.1-1.8-0.2-2.2-1.5c-0.3,0.7-0.6,1.2-0.8,1.7
		c-0.4,0.8-0.9,1.1-1.7,1c-0.7-0.1-1.1-0.6-1.2-1.5c0-0.1,0-0.2-0.1-0.5c-0.2,0.2-0.3,0.4-0.4,0.5c-0.7,1.1-2,1-2.6-0.1
		c-0.6-1.1-1-2.3-0.8-3.6c-0.4-0.3-0.8-0.5-1.2-0.8c0,0,0,0.1,0,0.1c-0.6,0-1.1-0.1-1.7-0.1c-0.1,0-0.2-0.1-0.4-0.1
		c-1.5,0.1-1.7-0.1-2.1-1.6c-1.4-0.4-1.8-0.8-1.7-1.9c0.1-0.4,0.2-0.8,0.2-1.3c0-0.6,0-1.1,0-1.7c-0.1,0-0.2,0-0.3,0
		C10,53.9,9.9,54,9.9,54.1c-0.4,0.6-1,0.9-1.6,0.7c-0.7-0.2-1.1-0.7-1-1.4c0.1-1.2,0.3-2.4,0.6-3.5c0.1-0.6,0.2-0.8-0.5-1
		c-0.8-0.2-1.1-0.7-1.1-1.5c0-0.4,0-0.8-0.2-1.1c-0.6-1.9-0.9-3.9-1.1-5.9c0-0.4-0.2-0.6-0.6-0.9c-0.4-0.2-0.8-0.8-0.8-1.2
		c0-0.4,0.4-0.9,0.7-1.3c0.2-0.3,0.5-0.5,0.6-0.8c0.1-0.7,0.1-1.5,0.1-2.2c0-0.2-0.2-0.4-0.3-0.5c-0.8-0.8-0.7-1.7,0.3-2.4
		C5.2,31,5.5,30.7,5.9,30.3z M13.4,26.1c0.2,0.3,0.5,0.5,0.7,0.8c0.3-0.5,0.6-0.9,0.9-1.3c0.3,0.2,0.6,0.4,1,0.6
		c0.2-1.2,1-1.2,1.9-1c0.2,0,0.4,0,0.6-0.1c0.6-0.2,0.9,0,1.1,0.5c0.2,0.6,0.5,1.1,0.8,1.7c0.3-1.1,0.4-2.2,0-3.3
		c-0.1-0.2-0.3-0.4-0.5-0.4c-2.3-0.1-4.3,0.7-6.1,1.9C13.5,25.6,13.5,25.9,13.4,26.1c-0.8-0.1-1.8,1.1-1.6,2c0.2,1.1,0.9,2,1.7,2.8
		c-0.1-1.5-0.2-2.9-0.3-4.2C13.2,26.4,13.3,26.2,13.4,26.1z M61.6,35.9c0.1-0.1,0.1-0.1,0.2-0.2c0.9,0.3,1.7,0.7,2.6,1
		c0,0,0.1-0.1,0.1-0.1c-1.3-0.9-2.7-1.7-4-2.6c0-0.1,0.1-0.2,0.1-0.3c0.8,0.2,1.6,0.4,2.4,0.6c-0.3-1-1.3-0.8-2-1.1
		c0.1-0.9-0.4-1.4-0.9-2c-0.1-0.1-0.4-0.2-0.5-0.1c-0.6,0.3-1.1,0.7-1.7,1c0.3,0.5,0.5,0.8,0.7,1.3c-1.3,0.2-2-0.7-2.8-1.4
		c0.3,0,0.6,0,0.9,0c0.2,0,0.5,0.1,0.7-0.1c1.3-0.9,2.5-1.8,3.7-2.7c-0.1-0.1-0.2-0.3-0.5-0.6c1.3-0.5,2.6-1,3.8-1.4
		c1.3-0.4,2.5-0.8,3.8-1.2c0-0.1,0-0.1,0-0.2c-0.7-0.1-1.5-0.2-2.2-0.3c0.2-0.4,0.4-0.7,0.6-1.1c-0.8,0-1.4,0-2.1,0
		c0.4-0.9-0.8-1.6,0.2-2.5c-0.9,0-1.7,0-2.6,0c0-0.4,0-0.7,0-1.2c-0.5,0.3-0.8,0.6-1.2,0.8c-0.1,0-0.2,0-0.3-0.1
		c0.1-0.7,0.1-1.4,0.2-2.2c-1,0.6-2.1,1.2-3.3,1.9c-0.1-0.7-0.1-1.2-0.2-1.8c-0.4,0.3-0.7,0.5-1,0.8c-0.1,0-0.2-0.1-0.2-0.1
		c0.2-0.8,0.4-1.7,0.6-2.5c-0.9,0.6-1.8,1.2-2.9,1.9c0.2-1.7-1.3-2.8-0.8-4.4c-0.6,0.1-1,0.2-1.5,0.3c0.1-0.5,0.1-0.8,0.1-1.3
		c-0.8-0.1-1.6-0.3-2.4-0.4c0,0.1-0.1,0.1-0.1,0.2c1.2,0.5,2.2,1.2,2.2,2.6c-0.5,0-0.9,0-1.5,0c0,0.7,0,1.3,0,1.9
		c-0.1,0-0.1,0-0.2,0.1c-0.2-0.3-0.5-0.6-0.5-0.9c-0.1-1,0.7-1.5,1.6-2.3c-0.8-0.2-1.4-0.3-2.2-0.5c0.1-0.7,0.2-1.5,0.4-2.3
		c0.3-1,0.8-1.9,1.1-2.9c-0.1-0.1-0.2-0.2-0.3-0.3c-0.7,0.2-1.5,0.4-2.4,0.7c0.3-1.2,0.5-2.4,0.8-3.5c-0.1-0.1-0.1-0.1-0.2-0.2
		c-1.2,1-2.4,2-3.7,3c-0.1,0.1-0.4,0.2-0.5,0.2c-0.1,0-0.3-0.3-0.3-0.4c-0.1-0.6-0.2-1.2-0.3-2.1c-0.3,0.6-0.5,1-0.7,1.4
		c-0.6-1.1-1.2-2.1-1.9-3.2C40,6,39.5,6.8,38.9,7.4c-0.1,0.2-0.4,0.3-0.6,0.3c-0.2,0-0.4-0.3-0.5-0.4c-0.2-0.5-0.3-1-0.4-1.4
		c-0.3,0.9-0.6,1.9-0.9,2.9c-0.4,1.1-0.9,2.1-1.5,3.4c-0.2-0.2-0.6-0.4-0.7-0.6c-0.3-1-0.4-2-0.6-3.1c-0.1-0.4-0.2-0.7-0.3-1.1
		c-0.2,0.4-0.3,0.7-0.3,1c-0.1,1.7-1.4,2.3-2.7,2.7c-0.8,0.2-1.4,0.5-1.9,1c-0.9,0.8-2.1,0.5-2.6-0.6c-0.1-0.2-0.2-0.4-0.3-0.6
		c-0.2,0.2-0.4,0.4-0.6,0.6c-0.9-1.7-0.5-3.3-0.3-5c-1.7,1.8-0.8,4-1.4,5.9c-0.1-0.4-0.1-0.8-0.2-1.3c0-0.4,0-0.9,0-1.3
		c-0.1,0-0.1,0-0.2,0c0,0.6,0,1.2,0,1.9c0,1.3-0.7,1.8-1.9,1.4c-0.4-0.1-0.7-0.3-1.1-0.4c-0.7,1,0.6,2.1-0.2,3.1
		c-0.4-0.3-0.7-0.5-1.1-0.7c-0.2,0.4-0.3,0.8-0.5,1.2c-0.5-0.4-1-0.8-1.5-1.1c-0.3,0.7,0.6,2.1-1.2,1.8c0.3,0.6,0.6,0.6,1.1,0.4
		c1.4-0.7,2.9-1,4.5-1c0.5,0,1-0.3,1.4-0.5c1-0.6,1.9-1.5,2.9-1.7c2.4-0.5,4.9-0.5,7.2,0.9c1,0.6,2.2,1.1,3.3,1.5
		c1,0.4,1.9,0.2,2.7-0.6c0.4-0.4,0.9-0.8,1.3-1.3c1.2-1.2,2.8-1.7,4.5-1.5c1,0.1,1.7,0.6,2.1,1.6c0.3,0.8,0.6,1.7,0.7,2.6
		c0.4,1.7,0.3,3.4-1.2,4.6c-0.5,0.4-0.7,0.9-0.4,1.6c0.3,0.9,0.3,1.7-0.7,2.3c-0.4,0.2-0.6,0.7-0.9,1c-0.3,0.3-0.6,0.6-1,1
		c-0.2-0.7-0.4-1.3-0.6-1.9c0.4-0.1,0.7-0.2,1-0.3c0.3-0.8-0.8-1.9,0.9-2.1c-0.6-0.3-1-0.6-1.4-0.8c0.9-0.5,1.9-0.9,2.7-1.4
		c0.3-0.2,0.7-0.7,0.8-1.1c0.3-1.7,0.1-3.4-0.6-4.9c-0.8-1.9-3.3-2.3-4.7-0.7c-0.3,0.3-0.5,0.6-0.8,0.9c-1.8,1.7-2.5,2.1-5,1.2
		c-0.5-0.2-1.1-0.4-1.5-0.7c-2.3-1.6-4.9-1.6-7.5-1.5c-1,0.1-1.8,0.6-2.2,1.6c-0.2,0.4-0.1,0.6,0.3,0.8c0.8,0.4,1.7,0.4,2.5,0.1
		c0.4-0.1,0.8-0.3,1.2-0.4c1.4-0.2,2.6,0.2,3.6,1.1c-1.1,0.7-2.9-0.1-2.9,1.8c-1.6-0.7-3.1-1.5-4.6-2c-2.6-1-5.3-0.8-7.7,0.7
		c-0.5,0.3-1,0.8-1.2,1.3c-0.4,1-0.6,2.1-0.9,3.2c0.6,0.5,1.4,0.5,2.1,0.4c2.6-0.6,5,0.1,7.2,1.5c2.6,1.7,4.9,3.6,6.8,6
		c1.5,1.8,3,3.6,3.6,6c1,4,1.4,8.1,1.8,12.1c0.1,1.3,0.1,2.7-0.6,3.9c-1.6,2.7-4.3,3.7-7,4.6c-1.9,0.6-3.1-0.1-3.8-2
		c-0.4-1-0.7-2.1-1.1-3.2c-0.7-2-1.2-4-1.3-6.1c-0.1-2.1-0.8-4-2-5.8c-2.2-3.4-5.4-5.9-8.2-8.9c-1.2-1.2-2.1-2.5-2.3-4.2
		c-0.2-1.4-0.2-2.8-0.2-4c-0.9,0.6-2,1.4-3.1,2.2c0.3,0.1,0.5,0.2,0.7,0.2c0.9,0.1,1.2,0.7,1.3,1.5c0.2,0.7-0.3,1-0.8,1.4
		c-0.4,0.2-0.8,0.5-1.2,0.8c1.7,0.7,1.8,1.4,0.4,3.4C7,32.1,7.7,32,8.5,31.9c0.2,1-0.4,1.4-0.9,2c1.1,0.4,0.8,1.2,0.4,1.9
		c-0.4,0.6-1,1-1.6,1.6c0.1,0.1,0.3,0.4,0.5,0.6c-0.5,0.1-0.9,0.2-1.3,0.3c0.5,0.2,1,0.4,1.5,0.6c-1.1,1-0.4,2-0.3,3
		c0.4-0.4,0.8-0.7,1-1.2c0.3-0.8,1-1.1,1.7-1.4c0.1,0,0.1,0.1,0.2,0.1c-0.7,1-1.5,1.9-2.2,2.9c0.4,0.9,1.3,0.3,2,0.6
		c-0.5,1.5-0.9,2.9-1.4,4.4C8.4,47.3,9,47.2,9.6,47c-0.1,0.7-0.8,1.1-0.3,1.8c0.4,0.4,0.3,0.8,0,1.3c-0.5,0.9-0.7,1.9-0.6,3.1
		c0.6-1.1,1.1-2,2.2-2.6c-0.1,0.6-0.2,1.1-0.3,1.6c0.4,0,0.6,0.1,0.7,0.1c0.7,1.6,1.1,3.1,0.3,4.6c0.9-0.4,1.6-0.8,2.3-1.1
		c0,0.1,0.1,0.1,0.1,0.2c-0.3,0.9-0.5,1.8-0.8,2.7c0.1,0,0.2,0.1,0.2,0.1c0.2-0.2,0.4-0.5,0.6-0.7c0.3,0.4,0.7,0.7,1,1
		c0.7-0.7,0.9-1.9,2.1-2.1c0.1,0.9,0.1,1.7,0.1,2.5c0.1,0,0.2,0.1,0.3,0.1c1.2,0.3,1.2,0.3,1,1.5c-0.2,1,0,1.9,0.6,2.8
		c0.2-1.1,0.1-2.2,1.1-3.1c0.1,0.7,0.3,1.3,0.4,2c0.5-0.5,0.9-1,1.3-1.4c0.1,0,0.2,0,0.2,0.1c0,1,0,2,0,3c0.1,0,0.2,0,0.3,0
		c0.5-1,1-2,1.5-3.1c0.4,0,0.9,0.1,1.4,0.2c-0.5-1.1-1-2.1-1.5-3.1c-0.1-0.2-0.3-0.4-0.5-0.4c-0.7-0.2-0.7-0.6-0.6-1.2
		c0.1-0.2,0.1-0.5,0.1-0.7c0.1-0.6,0-1.1-0.7-1.3c-0.2-0.1-0.4-0.2-0.4-0.3c-0.2-0.7,0.5-1.9,1.3-2c-0.2,0.5-0.3,0.9-0.5,1.4
		c0.7,0.1,0.8,0.5,0.8,1.1c0,0.6,0,1.2,0,1.8c0.3,0,0.6,0,0.6,0c0.6,1.1,1.2,2.2,1.8,3.2c0.2,0.4,0.4,0.8,0.2,1.3
		c-0.3,0.7-0.2,1.4,0.2,2.1c0.3-0.4,0.5-0.8,0.8-1.2c0.3,0.5,0.5,1,0.7,1.4c0.3-0.3,0.6-0.6,1-0.9c0.2,0.7,0.3,1.4,0.5,2.1
		c0.2-0.6,0.3-0.9,0.5-1.5c0.7,0.9,1.4,1.7,2.1,2.5c0,0,0.1-0.1,0.1-0.1c-0.1-0.7-0.3-1.3-0.4-2c0.1,0,0.1-0.1,0.2-0.1
		c0.8,1.3,2.1,1.7,3.4,2.2c-0.1-0.4-0.2-0.6-0.4-1c0.4,0.3,0.7,0.4,1.1,0.7c-0.1-1.2,0.2-2.3,1-3.1c0.5,0.4,0.9,0.8,1.4,1.2
		c0,0,0.1-0.1,0.1-0.1c-0.2-0.5-0.3-1-0.5-1.5c0.5,0.1,0.9,0.2,1.2,0.4c0.1-0.4,0.1-0.7,0.2-1.1c0.6,0.2,1.1,0.4,1.7,0.6
		c-0.1-0.2-0.1-0.3-0.2-0.5c-0.2-0.5-0.6-1.1-0.4-1.6c0.1-0.5,0.7-0.8,1.1-1.2c0.4-0.4,0.3-1.1-0.3-1.3c-0.4-0.2-0.8-0.3-1.2-0.4
		c1.1-1.5,1-2.8-0.4-4.2c0.7-0.1,1.1-0.1,1.7-0.2c-0.6-1.2-2.4-2.1-0.5-3.5c-0.2-0.3-0.3-0.5-0.5-0.8c-0.1-0.3-0.4-0.7-0.3-0.9
		c0.4-0.6,0.2-1.1-0.2-1.6c1.1-0.1,1.2,0.1,1.1,1.1c-0.1,0.5,0.1,1,0.2,1.5c0.1,0.3,0.3,0.7,0.3,1c0,0.2-0.1,0.5-0.3,0.7
		c-0.1,0.2-0.3,0.2-0.5,0.4c0.5,0.7,0.9,1.3,1.4,1.9c0.6,0.7,0.5,1.3,0.1,2.1c-0.3-0.3-0.6-0.6-0.9-0.9c0,0.4,0.1,0.7,0.3,0.9
		c0.4,0.6,0.5,1.1,0.1,1.7c-0.1,0.1,0,0.6,0.2,0.8c0.6,0.8,0.7,1.6,0.7,2.5c-0.3,0.1-0.6,0.1-0.9,0.2c1.1,0.6,2.1,1,3.2,1.6
		c-0.1-0.5-0.1-1-0.2-1.6c0.5,0.5,0.9,0.8,1.4,1.2c0.1-0.7,0.3-1.3,0.4-1.9c1-0.2,1.9-0.2,2.4,0.6c0-0.3-0.3-0.8-0.1-1.1
		c0.3-0.6,0.3-1.1,0.1-1.8c-0.1-0.3-0.1-0.5-0.1-0.9c0.8,0.6,1.6,1,2.3,1.5c0-0.4-0.2-0.7-0.4-0.9c-0.1-0.2-0.1-0.5,0-0.6
		c0.5-0.4,0.4-0.8,0.1-1.3c-0.2-0.3-0.3-0.7-0.5-1.2c0.8,0.1,1.5,0,2,0.3c1,0.5,1.6-0.2,2.4-0.6c-0.6-0.3-1-0.6-1.5-0.9
		c1.6-0.1,2.7-0.9,3.9-1.8c-0.7-0.4-1.8-0.4-2.1-1.6c0.5,0,1,0,1.4,0c-0.2-1.1-0.4-2.2-0.6-3.3c0.6-0.2,1.1-0.4,1.7-0.7
		c-1.2-1.4-1.3-1.6-0.9-2.4c0.7,0.6,0.9,2,2.3,1.5c-0.4,1.3-1.5,1.6-2.4,2.2c0.5,0.4,1,0.7,1.5,1.1c-0.4,0.3-0.7,0.5-1.2,0.8
		c0.7,0.1,1.3,0.2,2.1,0.3c-0.8,0.5-1.4,0.9-2,1.2c1.2,0.5,2.2,1.1,2.4,2.7c-1.5-1.4-2.7-1.1-3.7,0.2c0.2,0.7,0.3,1.4,0.5,2.1
		c-0.1,0-0.2,0.1-0.2,0.1c-0.3-0.3-0.7-0.5-1.1-0.8c-0.9,1-1.9,1.1-3,0.2c-0.5,1.1,0.7,1.2,1,1.9c-0.4,0.1-0.8,0.2-1.1,0.3
		c0.7,1.9,0.8,2.5,0.3,3.3c-0.2-0.3-0.4-0.6-0.6-0.9c-0.2-0.3-0.4-0.6-0.6-0.9c-0.6-0.5-1-0.4-1.2,0.4c-0.2,0.7,0.2,1.3,1.3,1.6
		c1.4,0.4,2.5,1.1,3.3,2.3c0,0,0.1,0,0.1,0c-0.1-0.2-0.2-0.4-0.3-0.5c-0.1-0.2-0.2-0.4-0.3-0.5c0.3-0.1,0.6-0.2,1-0.4
		c1.3-0.5,1.3-0.5,1.2-1.9c0-0.1,0-0.3,0-0.6c0.7,0.1,1.4,0.1,2.1,0.2c0.5-0.6,0.8-1.2,0.6-2c-0.1-0.5,0.1-0.8,0.6-0.8
		c0.5,0,0.6-0.3,0.7-0.7c0.1-0.7,0.4-1.4,0.6-2.2c0.5,0.3,0.9,0.6,1.2,0.8c0.1,0,0.1-0.1,0.2-0.1c-0.2-0.9-0.4-1.9-0.6-2.8
		c0.8-0.2,1.4,0.1,1.8,0.9c0.1,0.2,0.4,0.5,0.6,0.6c0.6,0.1,1.2,0.1,1.9,0.2c-0.5-1-1.6-1.2-2.4-1.7c0.3-0.2,0.6-0.4,0.9-0.6
		c-0.8-0.4-0.7-1-0.6-1.7c0.2-0.6,0.5-0.7,1-0.6c0.4,0.1,0.7,0.2,1.2,0.4c-0.4-0.5-0.7-0.8-1-1.1c0.4-0.5,0.7-1.1,1.2-1.7
		c-0.7-0.4-1.4-0.8-2.1-1.1c0.1-0.2,0.1-0.5,0.1-0.5c-0.4-0.4-0.6-0.7-1-1.2c0.8,0.1,1.4,0.2,2,0.3c-0.7-0.5-1.4-0.9-2.1-1.4
		c-0.2-0.1-0.4-0.2-0.4-0.4c-0.3-0.7-0.5-1.3-0.7-2c-0.1-0.4-0.2-0.8-0.3-1.5c0.6,0.4,0.9,0.6,1.4,0.9
		C62.1,37.2,61.9,36.6,61.6,35.9z M23.1,46.9c0.4-0.7,0.6-1.2,0.9-1.7c0.9-1.6,1.3-3.2,0.9-5c-0.5-2.2-1-4.4-1.6-6.6
		c-0.6-2.1-0.3-4,0.9-5.8c0.4-0.7,0.3-1.1-0.3-1.5c-0.8-0.5-1.7-0.8-2.6-1.3c-0.2,1.4,0.2,2.8-1.2,3.7c-0.2-0.6-0.4-1.1-0.5-1.6
		c-0.2-0.5-0.2-1.1-0.5-1.3c-0.3-0.2-0.9-0.1-1.3-0.1c-0.1,0-0.2,0-0.3,0c-0.4-0.1-0.8,0-0.9,0.5c-0.1,0.4-0.4,0.5-0.8,0.5
		c-0.9-0.1-1.9,1.2-1.8,2.1c0.1,0.9,0.2,1.9,0.3,2.8c0,0.4,0.1,0.8,0.3,1c1.1,1.2,2.1,2.4,3.3,3.5c2.4,2.1,4.1,4.5,4.7,7.7
		C22.7,44.7,22.9,45.7,23.1,46.9z M32.6,34.6c-0.4,0.6-0.8,1-1.2,1.5C30.8,37,30,37.4,29,37.5c-0.8,0.1-1.5,0.4-2.2,0.8
		c-0.8,0.4-1,1.1-0.8,1.9c0.2,0.8,0.4,1.8,0.2,2.5c-0.2,1-0.8,2-1.4,2.9c-0.8,1.3-1,2.7-0.9,4.2c0,0.2,0.1,0.4,0.3,0.5
		c0.6,0.6,1.2,1.2,1.7,1.8c0.4,0.5,0.8,0.6,1.4,0.5c1.7-0.4,2.7-1.6,3.6-3.1c0.5-0.9,0.8-1.6,0-2.5c-0.1-0.1-0.2-0.3-0.4-0.8
		c0.6,0,0.9,0,1.3,0.1c0.5,0.2,0.8,0.1,1.1-0.3c0.4-0.5,0.9-0.9,1.5-1.3c0.4-0.3,0.5-0.5,0.5-1c-0.2-1.4-0.3-2.8-0.5-4.2
		C33.9,38,33.6,36.2,32.6,34.6z M10.9,21.2c-1.5,2-1,6.2,0.5,8.1c0-0.3,0-0.5,0-0.7c-0.3-1.6,0.2-2.9,1.1-4.1
		c0.3-0.4,0.5-0.8,0.6-1.2c0.1-0.1,0-0.4-0.1-0.5C12.4,22.2,11.6,21.7,10.9,21.2z M24.6,51.5c0,1.2,0.2,2.1,1,2.7
		c0.8,0.5,1.7,0.2,2.5-0.1c0.1,0,0.1-0.1,0.2-0.1c1.1-0.8,2.4-1.4,3.4-2.3c0.7-0.6,1.2-1.4,1.7-2.2c0.1-0.2,0.1-0.8-0.1-1
		c-0.4-0.5-0.9-0.9-1.4-1.3c0.1,0.6,0.3,1.1,0.5,1.7c0.2,0.5,0.2,1.1,0.3,1.6c-0.1,0-0.1,0-0.2,0c-0.2-0.2-0.4-0.4-0.6-0.7
		c-0.3,0.5-0.6,0.9-0.9,1.3c-0.8,1.1-1.8,2-3.2,2.4c-0.8,0.2-1.4,0.1-1.9-0.5C25.5,52.6,25.1,52.1,24.6,51.5z M41.7,60.2
		c0.1,0.8,0.2,1.5,0.3,2.2c0.9-0.2,1.6-0.3,2.4-0.5C43.8,60.8,42.8,60.5,41.7,60.2z M14,18.3c-0.7-0.3-1.7,0.2-2.5,1.3
		c0.4,0.3,0.7,0.6,1,0.9C13,19.8,13.5,19.1,14,18.3z M60.6,30.3c-0.1,0.1-0.1,0.1-0.2,0.2c0.7,0.8,1.3,1.6,2,2.3
		c0.1,0,0.1-0.1,0.2-0.1c-0.1-0.5-0.3-1.1-0.3-1.6c-0.1-0.8-0.5-1-1.2-0.9C60.9,30.2,60.7,30.2,60.6,30.3z M46.5,61.2
		c0.8-0.3,1.5-0.6,2.4-0.9c-0.7-0.4-1.3-0.8-2-1.2C46.8,59.9,46.7,60.4,46.5,61.2z M8.3,43.9c-0.6-0.1-1-0.1-1.5-0.1
		c0.2,0.8,0.5,1.6,0.7,2.4c0.1,0,0.2,0,0.2,0C8,45.4,8.1,44.7,8.3,43.9z M7.4,35.1c-1.6-0.7-0.7-1.6-0.1-2.4c-1,0.4-1.3,2.3-0.8,3.7
		C6.8,36,7.1,35.6,7.4,35.1z M9.5,22.3c0.2-0.6,0.4-1,0.6-1.5c-0.4,0-0.7,0-1.1,0C9.1,21.3,9.3,21.7,9.5,22.3z"/>
	<path class="st0" d="M42.7,14.8c-0.1,0.6-0.1,1.2-0.2,1.8c0.3-0.3,0.6-0.5,0.9-0.7c-0.2,0.8,0.1,1.2,0.6,1.8
		c1.4,1.8,0.6,3.2-1.4,3.9c-0.4,0.2-0.7,0-0.9-0.4c-0.2-0.9-0.8-1.4-1.5-1.9c-0.8-0.5-0.8-0.9,0-1.4c0.7-0.4,1-0.9,0.9-1.7
		C42.3,16.5,42.1,15.3,42.7,14.8z"/>
	<path class="st0" d="M44.2,37.3c-0.1-0.6-0.3-1.1-0.3-1.7c-0.2-1.1-0.5-1.4-1.6-1.7c-0.6-0.1-1.2-0.3-1.9-0.5
		c-0.1,0.3-0.2,0.7-0.4,1c-0.1,0.1-0.2,0.3-0.4,0.3c-0.1,0-0.2-0.2-0.3-0.3c-0.3-0.7-0.6-1.3-1-2.2c0.5,0.4,0.9,0.7,1.4,1.1
		c0.4-0.5,0.7-0.9,1.1-1.4c0.1,0.1,0.1,0.1,0.2,0.2c0.1,0.4,0.1,0.8,0.2,1.3c1.3-0.2,2.4,0.2,3,1.5c0.1-0.1,0.2-0.1,0.2-0.2
		c-0.2-0.7-0.5-1.3-0.7-2c0.2-0.1,0.5-0.2,0.7-0.3c-0.1-0.6-0.2-1.2-0.4-1.8c0.4,0.1,0.7,0.1,1,0.2c0-0.1-0.1-0.1-0.1-0.2
		c0.7-0.4,1.3-0.9,2-1.3c0.1-0.1,0.5,0.1,0.6,0.2c0.4,0.9,0.7,1.8,1,2.7c0.1,0.2,0.1,0.5,0.1,0.7c-0.1,0-0.2,0.1-0.2,0.1
		c-0.6-1-1.2-2-1.8-3.2c-0.4,0.7-0.8,1.4-1.1,2.2c-0.1,0.3,0.3,0.7,0.6,1.2c-0.5,0-0.9,0-1.4,0C45.2,34.7,45,36,44.2,37.3z"/>
</g>
</svg>
