<?xml version="1.0" encoding="utf-8"?>
<!-- Generator: Adobe Illustrator 19.2.0, SVG Export Plug-In . SVG Version: 6.00 Build 0)  -->
<svg version="1.1" id="Layer_1" xmlns="http://www.w3.org/2000/svg" xmlns:xlink="http://www.w3.org/1999/xlink" x="0px" y="0px"
	 viewBox="0 0 300 189.5" style="enable-background:new 0 0 300 189.5;" xml:space="preserve">
<g>
	<path d="M148.7,150.6c1.8,2.6,3.7,5.2,5.5,7.7c0.4,0.5,0.8,1,1.1,1.6c2,3.7,2.1,3.6,5.8,1.6c1-0.6,2.7,0.1,4.1,0.3
		c-0.2,1.2-0.1,2.6-0.7,3.5c-1,1.6-2.6,2.4-4.7,2.2c-1.1-0.1-2.3,0-3.5,0c-0.1,4.8,1.6,9.7-1.2,14.2c-2.8-1.4-2.7-3.8-2.9-5.9
		c-0.2-2.2-0.1-4.4,0-6.5c0.1-1.7-0.7-2.3-2.2-2.3c-1.8,0.1-3.6,0.3-5,0.5c-0.8,4.5-1.6,8.6-2.4,13c-2.9-1.2-2.8-3.5-2.8-5.4
		c0.1-2.3,0.4-4.7,1.4-6.7c1.7-3.7-0.8-6.4-1.9-9.4c-0.6-1.5-1.4-3-1.9-4.6c-0.7-2.3-2.5-3.6-4.1-5.3c-6.4-6.9-14.7-11.1-21.8-17
		c-1.5-1.2-2.6-2.9-4.1-4.1c-1.7-1.4-3.7-2.5-6.1-4.1c-0.3,4,0.6,6.9,2.8,9.3c7.6,8.3,6.5,18.7-0.7,26.8c-2.8,3.1-5.9,5.8-10,7.1
		c-0.7,0.2-1.1,1.1-1.7,1.6c-1.1,1-2.1,1.9-3.2,2.8c-0.4,0.4-1,0.6-1.4,1c-3.4,3.7-3.8,3.8-8.2,1.6c-3.5,2.8-5.2,2.8-9.1,0.4
		c-0.5-0.3-1.2-0.5-1.9-0.5c-1.3-0.1-2.5,0-3.8,0c-6.1-0.3-7-2.1-6.5-7.9c0.2-2.2,0.8-4.4,0.8-6.6c0-1.3-0.3-2.7-1-3.8
		c-3.1-4.8-5.2-9.9-4.9-15.8c0.2-5.1,2-9.7,5.6-13.4c1.5-1.5,1.5-2.6,0.7-4.4C52,107.9,45.3,93.6,38.6,79.4
		C30.3,61.6,22,43.9,13.8,26.2c-3.6-7.6-7.1-15.3-10.6-23c2.2-0.7,3.5-0.4,4.6,2.1c4.6,10.1,9.4,20,14.2,30
		c6.7,14.2,13.5,28.3,20.2,42.5c7,14.8,14,29.6,21,44.4c1-0.6,1.9-1.1,3.2-1.9C48.9,81.6,31.4,42.9,13.9,4.2
		c2.5-0.8,3.6-0.2,4.5,2.1c4.9,11.3,10.2,22.6,15.3,33.8c6.6,14.7,13.2,29.4,19.8,44c4.3,9.6,8.7,19.2,13.1,28.8c1,2.1,2,4.2,3,6.3
		c0.2-0.1,0.5-0.1,0.7-0.2c0.1-0.5,0.3-1,0.3-1.5c-0.1-5.3-0.3-10.5-0.5-15.8c-0.1-2.1,0-4.3,0-6.4c0-3.8,2.4-6.1,5.2-8
		c3.3-2.3,6.6-4.3,9.9-6.5c2.9-1.9,3-2.6,1.8-5.7c-0.4-1.1-0.1-2.4-0.1-3.8c-0.3,0-0.8-0.2-1.3-0.2c-1.5,0-3.6,0.4-3.6-1.8
		c0-2,1.3-3.4,3.6-3.1c1.7,0.2,2.6-0.8,2.7-2.3c0-1.1-0.5-2.2-0.9-3.2c0-0.1-0.4-0.1-0.4-0.2c-0.4-1.4-1.2-2.7-1.1-4.1
		c0.1-1.3,1.2-1.9,2.6-0.8c0.8,0.7,1.7,1.3,2.5,1.9c0.2-0.1,0.4-0.2,0.6-0.4c-1.2-2.9-2.3-5.8-3.7-9.4c1.2,0.4,1.8,0.5,2.3,0.7
		c2.9,1.2,4.9,0.3,5.6-2.9c0.3-1.2,0.3-1.9,1.9-1.3c1.8,0.7,2.4-0.7,2.1-2c-0.5-2.4,0.4-3.2,2.6-2.9c0.4-0.9,0.8-1.7,1.3-2.7
		c1.3,0.8,2.5,1.6,4.3,2.7c0-2.9,0-5.1,0-7.3c0.4-0.1,0.7-0.2,1.1-0.2c0.9,2,1.8,4,2.8,6.2c0.5-1.8,1.2-3.7,1.4-5.6
		c0.3-3.2,1.7-5.7,4-7.7c0.9-0.8,2-1.9,3.1-0.5c1.1,1.5,0.5,3.3-0.8,3.8c-1.9,0.7-2.1,2-1.6,3.3c0.4,1,1.7,1.7,2.6,2.6
		c0.2-0.2,0.4-0.3,0.6-0.5c0.3,1,0.6,2,1,3.1c0.5-1,0.8-1.9,1.4-2.7c0.9-1.4,1.8-2.6,3.8-1.6c1.4,0.7,2.4-0.2,2.7-1.7
		c0.3-1.4,0.5-2.8,1.2-4.3c0.6,2,1.1,4,1.7,5.9c0.2,0,0.4,0,0.6,0c0.5-2.3,1.1-4.7,1.5-7c0.4-2.1,1.1-2.5,3-1.2
		c1.1,0.7,2.2,1.3,3.5,2.1c0.5-1.1,0.8-2,1.6-3.8c1.6,1.9,2.8,3.4,4.1,4.8c2.6,2.7,4.4,2.5,6.6-0.6c0.4-0.5,0.6-1.2,0.8-1.8
		c0.4,0.2,0.7,0.4,1.1,0.6c1,3.6,1.9,7.2,3.1,10.7c0.3,0.8,1.4,1.7,2.2,1.9c2.8,0.6,4,1.8,4.2,4.8c0.1,1.1,0,2.2,0,3.4
		c1.6-0.9,3.1-2.5,4.4-2.3c1.1,0.1,2,2.2,3.3,3.7c1.3-0.8,2.8-1.9,4.8-3.2c0,1.9,0,3.4,0,5.4c1.4-0.2,2.4-0.4,3.5-0.5
		c1.3-0.1,3-0.7,2.2,2c-0.8,2.6,1.4,4.7,4.7,5c1.5,0.1,3,0.1,4.5,0c3.3-0.1,6.4-0.2,9.1,2.3c0.8,0.7,2.5,0.8,3.8,0.7
		c4.2-0.3,8.4-1,12.6-1.4c4.9-0.5,9,1.9,13,4.3c8.7,5.3,17.3,10.8,24.5,18.2c0.3,0.4,0.8,0.6,1.5,1.1c1.7-5.3,3.3-10.5,4.9-15.7
		c5.9-19.5,11.8-39,17.7-58.5c0.7-2.5,1.3-2.7,4.4-1.8C272.3,43.2,260.6,81,248.8,119c1.2,0.5,2.4,0.9,3.8,1.4
		c2.3-6.8,4.6-13.3,6.9-19.9c9.4-27.4,18.9-54.8,28.3-82.3c1.2-3.3,2.3-6.7,3.5-10c1.2-3.5,1.2-3.6,5.7-3c-14,38.8-28,77.4-42,116.2
		c5.4,2.7,9.5,6.7,11.1,12.6c2.3,8.9,2.7,17.7-2.6,25.8c-1.2,1.9-2.8,3.9-4.8,4.9c-2.9,1.6-3.2,4.1-3.3,6.8c-0.3,5.5-2,6.6-7.3,6.1
		c-2.4-0.2-5,1.1-7.5,1.5c-1.3,0.2-3.1,0.2-3.9-0.6c-1.7-1.6-3.3-1.4-5.2-0.9c-1.3,0.3-2.6,0.8-3.8,0.8c-0.6,0-1.2-1-1.8-1.6
		c0.6-0.4,1.1-0.9,1.7-1.3c0.2-0.1,0.6,0.1,0.7,0c1.8-1.9,3.9-2.9,6.7-2.8c0.1,0,0.7-2.2,0.5-3.3c-0.4-3.3-1.2-6.5-1.7-9.7
		c-0.1-0.7,0.1-1.6,0.5-2.1c0.6-0.7,1.4-1.5,2.2-1.6c0.5,0,1.6,1,1.7,1.7c0.7,4.3,1.2,8.7,1.6,13c0.2,1.8-0.3,3.7,2.4,3.8
		s4.4-1.4,4.2-4c-0.3-3.3-1.1-6.6-1.7-10c-0.2-1.2-0.3-2.3-0.1-3.6c2.5,2.2,4.6,4.8,4.8,8.1c0.2,3.2-0.4,6.4-0.6,9.7
		c2.4,0.5,3.6-0.4,3.7-3.8c0.1-3.2-0.3-6.5-0.7-9.7c-0.7-4.8-4.8-5.3-8.4-6.5c-2.6-0.9-5.1-1.9-7.7-2.5c-2.2-0.5-4.5-0.6-6.8-0.9
		c-1.4-0.2-2.8-0.2-4.1-0.6c-0.3-0.1-0.5-2.1-0.1-2.4c1-0.8,2.3-1.1,3.5-1.6c0.3-0.1,0.6-0.1,1.1-0.1c0-0.4,0.2-0.8,0.1-1
		c-3.2-4.9-0.8-9.2,1.4-13.5c0.4-0.7,1.6-0.9,2.4-1.4c0.2,0.8,0.7,1.5,0.7,2.3c-0.1,1.4-0.6,2.7-0.9,4c-0.4,1.4-0.9,2.8-1.1,4.3
		c-0.4,4.3,0.8,6.1,4.8,7.4c3.3,1.1,6.5,2.2,9.9,3c3.8,0.8,6.9,4,8.4,7.9c3.4-1.6,4.8-4.8,6.2-7.8c3.1-6.8,1.9-12.7-3.7-18
		c-2.9-2.7-6-4.6-9.8-5.3c-2.2-0.4-3.4,1-4,2.6c-1.1,2.7-1.7,5.6-2.6,8.4c-0.8,2.5-1.2,5.2-3.7,7.4c-1.7-7.4,2-12.9,4.6-18.8
		c-5.7-1.1-10.1,1.5-14.3,4.5c-6.2,4.4-8.1,10.6-6.8,17.9c0.3,1.8,0.5,3.6,1,5.3c0.8,2.8,2.9,4.5,5.7,4.8c1.6,0.2,1.8,0.9,1.9,2.2
		c0.2,1.9,0.7,3.9,1.2,6.1c-0.6,0.5-1.7,1.5-2.9,2.5c-1-2.3-9.7-9.8-12.3-10.6c0.7,2.6,1.1,5.3,2.1,7.7c0.3,0.8,2.2,1.1,3.5,1.2
		c2.2,0.1,4,0.5,4,3.2c0,0.6-0.3,1.5-0.8,1.8c-2.5,1.8-8.5,0.2-9.7-2.6c-0.2-0.5-0.4-1.1-0.4-1.7c0.1-4.2-2.7-8.3-0.4-12.6
		c0.3-0.6-0.2-1.6-0.4-2.4c-1.6-9.4,0-18.1,5.9-25.8c0.8-1.1,0.6-3.2,0.6-4.8c-0.1-3.4-0.3-6.8-0.5-10.2c-0.1-1.9-0.2-3.8-0.6-5.7
		c-0.3-2-1.9-2.6-4-1.8c-0.7,0.3-1.4,0.5-2.1,0.8c-0.7,0.2-1.4,0.5-2.2,0.7c-0.4,3.3-0.7,6.7-1.4,10c-0.2,1.2-1.4,3.2-1.9,3.2
		c-2.1-0.4-0.5-2-0.5-3c0-2.8,0.1-5.6,0.2-8.4c0.1-2.6-1.7-3.1-3.6-3.4c-1-0.1-2,0-3.3,0c0.2,1.2,0.4,2,0.6,2.8
		c1.3,5.7,2.8,11.3,4,17c0.2,1.1-0.4,2.4-0.4,3.7c-0.2,6.6-0.4,13.2-0.5,19.8c0,0.8,0.2,1.7-0.1,2.2c-3,4.4-2.2,9.7-3.4,14.5
		c-0.6,2.3-1.3,4.6-4.3,6.3c0.6-2.5,1.1-4.4,1.4-6.2c0.3-2.2,0.3-4.3,0.5-6.5c0.1-1.6,0.1-3.3,0.5-4.9c1.7-6.2,2.9-12.4,2-18.8
		c-0.3-2.5-0.2-5-0.7-7.4c-0.4-1.5-1.4-3.2-2.6-4.3c-1.4-1.3-2.3-0.8-2.5,1.2c-0.2,2.5-0.1,5-0.5,7.5c-0.9,4.9-5.6,9-9.9,8.8
		c-0.7,0-1.3-0.5-2-0.7c0.4-0.7,0.5-1.7,1.1-2c1.4-0.9,3-1.4,4.4-2.2c2.7-1.4,4.3-3.6,3.9-7c-0.4,0-0.8-0.2-1.2-0.1
		c-5.2,1.1-12.3,8.4-12.8,13.7c-0.7,6.8-1.8,13.6,1,20.3c1.8,4.2,1.3,8.8-0.1,13.2c-0.3,0.9-0.6,2.1-1.3,2.6
		c-0.9,0.7-2.3,0.8-3.4,1.2c-0.3-1.1-1-2.3-0.8-3.2c1-4.8,2.3-9.5,1.1-14.4c-0.1-0.5-0.2-1.1-0.5-1.3c-2.2-1.8-1.7-3.8-0.6-6
		c2.6-4.9,0.9-9.2-2.1-13.1c-0.5-0.6-2.3-0.4-3.5-0.3c-0.4,0-1,0.7-1.2,1.2c-2.5,5.5-7.5,5.3-12.3,5.4c-1.4,0-2.8,0-4.2,0
		C149.1,150.1,148.9,150.4,148.7,150.6z M143.7,59.4c0.7-0.5,1.4-0.9,1.9-1.4c2.4-2.5,2-4.1-1.2-5.3c-1.9-0.7-3.9-4.6-3.3-6.5
		c0.6-1.8,1.8-2.9,3.8-3c2.1-0.1,2.5,1.2,2.8,2.8c0.4,1.7,0.9,3.4,1.4,5c0.7-1.7,0.8-3.4,1.1-5c0.4-2.9-1.2-4.4-3.5-5.6
		c-2.1-1.1-3.4,0.1-4.8,1.2c-1.3,1-2.7,2-3.7,3.3c-1.6,2.1-3.3,2.2-5.4,0.9c-0.8-0.6-1.8-1-2.3-1.8c-3.1-4.9-8.1-2.3-12.2-3.2
		c-0.2,0-0.6,0.5-1.5,1.2c1.4,0.5,2.3,1.2,3.3,1.2c1.6,0,3.3-0.6,4.9-0.7c0.8-0.1,2,0.1,2.4,0.6c0.4,0.4,0.2,1.6-0.1,2.4
		c-0.3,0.9-0.9,1.8-1.5,2.5c-2.4,3.1-6.6,3-8.4-0.3c-0.2-0.3-0.5-0.8-0.8-0.8c-2.8-0.3-5.7-0.4-8.5-0.8c-2.7-0.4-3.8,2.2-5.9,2.9
		c-0.6,0.2-0.5,2.4-0.7,3.6c0.8,0.1,1.6,0.2,2.4,0.2c1-0.1,1.9-0.4,2.9-0.5c3.5-0.3,6,1.5,8.7,3.5c4.8,3.6,9.8,7,13.4,11.9
		c6.4,8.9,7.9,19,6.1,29.6c-1,5.9-4.6,10-10.5,11.7c-1.7,0.5-3.5,0.5-5.3,0.8c-0.4,4.1-0.4,4.1,3.5,5.6c0.7,0.3,1.2,1.1,1.8,1.7
		c0.6,0.5,1.1,1.4,1.8,1.6c2.4,0.7,4.8,1.1,7.3,1.7c3.6-6.3,3.5-5.5,5.7-3.8c1.6-2.3,3.1-4.6,4.3-6.3c-1-1-2.2-1.5-2.2-2.2
		c-0.5-5-0.9-10.1-1-15.2c0-1,1-2.8,1.8-2.9c1.6-0.2,2.4,1.1,2.1,2.8c-0.6,3.6-1.1,7,3.1,9c0.5,0.2,0.9,1.5,0.8,2.2
		c0,0.6-0.6,1.6-1.2,1.8c-2,0.6-2.3,1.5-1.4,3.3c0.5,1,0.6,2.2,0.9,3.4c0.4-0.1,0.7-0.1,1-0.2c1.6-0.8,3.3-1.4,4.7-2.5
		c2.2-1.7,5.5-2.3,6-5.7c0.3-2,0.8-3.2,2.4-2.8c0.9-1.2,1.3-2.4,2.2-2.8c2.8-1.2,3.4-1.9,2.1-4.7c-0.7-1.4-0.2-2.2,0.7-3.3
		c0.6-0.7,0.8-1.9,1.1-2.8c0.3-0.8,0.6-2.3,0.9-2.3c1.5,0,2.9,0.3,4.3,0.8c0.2,0.1,0.2,2-0.3,2.5c-1.8,2-1.4,4.1-0.8,6.3
		c0.2,0.6,0.4,1.2,0.6,1.9c0.8,3.3,0.1,4.2-3.3,3.8c-0.6,4.3-0.6,4.3-6.8,5.6c0.5,2.3-1.2,5.1,1,6.6c1.7-1.4,2.8-2.9,4.2-3.3
		c1.8-0.4,2.2-1.2,2.4-2.8c0.1-1,0.9-2.6,1.5-2.7c2.2-0.4,2.4-1.8,2.5-3.4c0.1-1.8,0.3-3.3,2.4-3.9c0.3-0.1,0.6-1,0.5-1.4
		c-0.7-2.3,0.8-3.3,2.5-4.1c0.5-0.2,1.1-0.5,1.6-0.7c-0.8-1.4-1.7-2.5-1.9-3.7c-0.7-4.1-0.6-4.2-5-5.2c0.8-1.8,1.6-3.6,2.2-5.1
		c-0.5-0.9-1.2-1.7-1.3-2.5c-0.5-3.2-0.9-3.4-4.1-2.6c-1,0.2-2.1-0.1-3.1-0.4c-0.3-0.1-0.5-1.4-0.2-1.8c0.5-0.8,1.3-1.5,2.1-2.1
		c1.6-1.1,3.3-2,4.9-3.1c2.3-1.7,4.6-3.4,6.9-5.2c-0.5-0.7-1.3-1.9-2-3.1c-1.6-2.4-4.2-3.7-6.7-3.2c-2.9,0.6-4.4-0.3-5.4-2.5
		c-5.3,1.7-3.6-3.6-5.4-5.3c-0.4,0.3-0.7,0.5-1,0.7c-1.2,0.8-2.4,1.5-3.6,2.3c-0.5-1.8-1.1-3.5-1.6-5.3c-0.1-0.3,0.1-0.7,0.2-1
		c0.9-3.2,0.5-6.2-2-8.7c-1.1-1.1-1.8-1.6-2.9,0.1c-1.3,2.1-3.4,2.4-4.2,0.7c-1.1-2.5-2.6-2.6-5-3c-2.6-0.4-3.7,0.1-4.4,2.4
		c-0.3,1.1-0.5,2.3-1,3.3c-0.4,0.8-1.2,1.8-1.9,1.8c-0.6,0-1.4-1-2-1.7c-0.5-0.6-0.8-1.3-1.6-2.6c-0.8,2.5-1.5,4-3.8,2.7
		c-0.2,0.8-0.3,1.5-0.5,2.3c2.6-0.3,4.7-0.2,6.2,2.1c1.9,2.9,3.6,3.1,6.3,1c1.3-1,2.3-2.4,3.4-3.6c0.5-0.5,0.9-1.2,1.5-1.5
		c2.4-1.5,5-1.4,7.1,0.4c2.5,2.2,4.3,4.9,3.7,8.3c-0.6,3-2.1,5.8-1.4,9.1c0.2,0.9-0.9,2.1-1.6,3.1c-0.4,0.7-1.2,1.1-1.6,1.7
		C147.5,62.4,146.6,62.5,143.7,59.4z M249.2,105.6c0.2,0,0.4,0,0.5,0.1c1.4-4.6,2.8-9.2,4.2-13.8c0.3-1,0.8-2.1,0.6-3
		c-1.2-4.6-2.6-8.9-7.2-11.6c-7.1-4.1-14.1-8.5-21-13.1c-4.6-3-9.5-3.1-14.5-2.8c-1.1,0-2.5,0.9-3.1,1.8c-1.3,2-3.7,3.3-5.4,1.8
		c-2-1.7-4.2-2.1-6.6-2.4c-6.3-0.7-12.7-3-18.3,2.3c-0.9,0.9-2.3,1.3-3.4,2c0.1,0.2,0.1,0.4,0.2,0.6c2.8-0.2,5.7-0.4,8.9-0.6
		c-0.8,1.2-1.3,2-1.8,2.8c-0.5,0.9-1,1.8-1.7,3c2.8,0.7,3.5,2.7,2.4,4.7c-0.9,1.7-2.7,3-4.2,4.7c1,0.4,1.9,0.8,2.9,1.1
		c3.9,1.3,4.4,2.4,2.7,6.2c-0.3,0.7-0.6,1.5-0.8,2.3c-0.6,2.5-1.7,4.7-4.9,5c0.7,1,1.2,1.7,1.9,2.6c0.5-0.8,0.9-1.5,1.3-2.1
		c2.5-3.8,4.9-7.7,7.6-11.3c1.9-2.7,5.1-3.6,7.1-2.3c0.7,0.4,1.1,1.3,1.6,2c-0.7,0.5-1.4,1.3-2.1,1.3c-2.5,0.3-3.8,1.7-4.6,3.9
		c-1.5,4.3,0,8,4.2,10.4c5.6,3,11.6,3.4,17.8,3.5c3.8,0.1,7-1,9.2-3.9c1.9-2.5,3.6-5.3,5-8.1c1-1.9,1.6-3.6,4.3-3.1
		c0.6,0.1,1.3-0.6,1.9-0.9c1.4-0.4,2.8-1.1,4.1-1c1.6,0,2.3,1.8,1.2,3.1c-6.6,8-11.5,17.2-15.8,26.6c-1.3,2.8-1.5,6-2.3,9.1
		c0.3,0.2,0.5,0.3,0.8,0.5c6.5-6.2,14.2-9.4,23.3-8.5c0.2-3.1,0.5-5.8,0.7-8.6c-0.2-0.1-0.5-0.2-0.7-0.3c-1.7,1.4-3.4,2.8-5.2,4.1
		c-0.6,0.5-1.6,0.5-2.4,0.7c0.1-0.8-0.1-1.8,0.3-2.4c1.4-2.1,2.9-4.3,4.6-6.2c3.8-4,5.2-8.5,3.8-13.9c-0.3-1.2,0-2.6,0.3-3.9
		c0.1-0.5,1-0.9,1.5-1.3c0.3,0.5,0.9,1,1,1.5c0.3,2.6,0.5,5.3,0.5,8C249.7,99.2,249.4,102.4,249.2,105.6z M85.3,86.1
		c-0.3,0.3-0.6,0.6-1,0.9c-1.9,1-3.8,2-5.7,2.9c-2.6,1.4-4.9,3.3-5,6.3c-0.2,5.4-0.2,10.8,0,16.2c0.3,6.1,0.8,12.1,1.5,18.1
		c0.3,2.8,1.1,5.6,1.9,8.3s1.9,5.3,2.6,8s-0.3,4.8-2.9,5.3c-2.8,0.5-5.7,0.5-8.6,0.3c-2.1-0.2-4-0.3-5.2,2.3
		c1.9,1.5,3.8,3.2,5.9,4.4c3.9,2.3,4.5,2,5.8-2.3c0-0.1,0.2-0.2,0.9-0.6c0.2,1.5,0.3,2.7,0.4,3.9c2.3,0.7,3.1,1.9,2,3.8
		c-0.7,1.1-2.1,1.7-3.3,2.5c-0.8,0.5-2.1,0.8-2.3,1.4c-0.6,2-1.7,2-3,1.1c-1.2-0.9-2.6-2.1-3.1-3.4c-1-2.7-3.3-3.8-5.6-5.9
		c0,3.4-0.2,6.1,0.1,8.7c0.3,2.9,1.5,3.3,4.4,3c2.4-0.3,4.9-0.2,7.2,0.3c3.4,0.8,4.8,0.5,6.5-2.7c0.7-1.4,1.2-2.9,2-4.2
		c0.8-1.5,1.8-3,2.7-4.5c0.3,0.1,0.6,0.2,0.9,0.3c0.2,0.8,0.2,1.7,0.5,2.4c0.4,0.8,1,1.9,1.6,1.9c0.8,0,1.7-0.7,2.3-1.3
		c0.4-0.3,0.5-1,0.6-1.6c1-4.6,2.1-9.1,3-13.7c0.7-3.8,1.2-7.7,1.5-11.6c0.4-4.8-1.5-9.1-3-13.4c-0.2-0.7-1.3-1.1-2-1.6
		c-0.5,0.7-1.4,1.4-1.5,2.2c-0.3,2.1-0.2,4.3-0.6,6.4c-0.5,2.9-1,6-3.9,8c-0.4-1.3-0.7-2.6-0.4-3.7c1.6-5.4,1.7-10.9,2-16.5
		c0.2-4.4-1-8-4.3-10.9c-0.6-0.5-0.8-1.4-1.5-2.7c4.5,1.3,6.7,3.9,8.8,6.9c0.5,0.7,2.2,1.3,2.8,1c1.8-1,3.4-2.3,4.9-3.7
		c1.3-1.2,0.9-2.8-0.7-3.4c-1.7-0.7-3.3,0.1-4,2c-0.9-2.6-1.2-5.2,0.7-7.5c1.5-1.8,1.2-3.5-0.8-4.5c-0.8-0.4-1.9-0.5-3-0.9
		c0.1-1.4,0.6-2.9,0.3-4.3C87.2,88.6,86.1,87.4,85.3,86.1z M104.6,107.7c1.3,1,2.2,1.5,3,2.2c0.4,0.3,0.6,0.9,0.7,1.5
		c0.5,3.3,1.7,4.4,5.1,4.4c1.4,0,3.4,0.2,3.4-1.6c0-1.3-1.4-2.7-2.3-4c-0.6-0.9-1.6-1.5-2-2.4c-0.5-1.5-0.7-3.2-0.9-4.8
		c-0.1-0.4,0.1-0.9,0.2-1.4c0.2-0.8,0.6-1.6,0.6-2.4c-0.2-2.6-0.6-5.2-0.9-7.8c-0.2-1.8-0.4-3.6-0.8-5.4c-1.6-6.2-6-10.2-10.6-14
		c-2.6-2.1-5-4.3-6.2-7.6c-0.4-1.2-1.9-2-2.9-2.9c-0.3,0.1-0.5,0.3-0.8,0.4c0.2,1.4,0.2,2.9,0.6,4.3c1,2.9,1.4,5.7,0.4,8.7
		c-0.2,0.6,0.1,1.8,0.4,2c2.3,1,1.7,2.8,1.5,4.5c-0.1,1.1,0,2.2,0,3.3c0,1.1,0.4,2.3,0.1,3.2c-1.9,4.9-1.2,7.5,2.9,10.6
		c0.7,0.5,1,1.8,1.1,2.8c0.2,1.8,0.4,3.2,1.5,4.9C100.7,109.1,102.4,109.9,104.6,107.7z M171.8,113.7c-0.6,0.1-0.9,0.2-1.2,0.1
		c-1.2-0.2-2.9-0.9-3.5-0.4c-0.8,0.6-0.7,2.3-0.9,3.6c-0.3,1.7-1.6,2.2-2.9,1.1c-0.8-0.7-1.4-1.8-2.3-2.2c-1.4-0.7-3-1-4.5-1.5
		c-0.5,1.9-2,1.1-3.2,1.3c-0.6,0.1-1.3,0.4-1.7,0.8c-2.5,2.6-2.5,2.6-5-0.2c-0.4-0.4-0.7-0.9-1.3-1.5c-0.5,4.4-4.5,2-6.2,3.8
		c0,4,5,10,8.8,10.6c1.1,0.2,2.3,0.4,3.5,0.5c4,0.1,8,0.6,11.2-2.8c1.6-1.8,3.4-3.5,5.4-4.9c4.6-3.3,7.8-7.7,10-12.8
		c0.9-2.2,1.3-4.6,1.9-6.9c-0.4-0.2-0.7-0.4-1.1-0.6c-1.5,1.8-2.8,3.9-4.7,5.4C171.6,108.9,170.4,110.8,171.8,113.7z M141.6,145.6
		c-0.4-1.4-3-2.2-1-3.8c1.6-1.3,3.4-1,4.8,0.7c0.1,0.1,0.1,0.1,0.2,0.2c3.1,3,12.5,3.4,15.9-0.3c2.8-3,2.4-5.9-1.6-7.5
		c-0.2-0.1-0.5-0.1-0.7-0.1c-4.5-0.3-9.1-0.6-13.6-1.1c-1.4-0.1-2.8-0.5-3.9-1.2c-2.7-1.7-3.4-1.7-5.7,0.5c-1.9,1.8-3.9,3.5-5.6,5.5
		c-0.6,0.6-0.8,2.1-0.5,2.9C131.7,146.2,137,148,141.6,145.6z M182.2,121.9c0.6,1.3,1,2.4,1.6,3.5s1,2.9,1.8,3.1
		c1.1,0.2,3-0.4,3.6-1.3c1-1.6,1.5-3.6,1.6-5.5c0.2-4.3-1.6-5.7-5.8-4.6c-0.9,0.2-1.9,0.8-2.6,0.5c-1.8-0.8-3.1,0.1-4.2,1.1
		c-1.7,1.4-3.2,3.1-4.5,4.9c-1.9,2.5-3.4,5.3-7.2,5.4c-1,0-2.1,1.5-2.7,2.6c-0.2,0.3,1.1,1.6,1.9,2.3c1.8,1.5,3.7,2.8,5.5,4.3
		c2,1.8,4.1,1.8,5.9-0.3c0.8-0.9,1.4-2.1,1.7-3.2C180,130.6,181,126.6,182.2,121.9z M70.6,127c-10.8,4.2-15.1,15.7-9.3,25
		c1.9-2.6,4.6-3.1,7.5-3c1.4,0,2.8,0.4,4.2,0.5c3.7,0.1,4.5-0.9,3.4-4.5c-0.8-2.6-2-5-2.8-7.6C72.5,133.9,71.6,130.5,70.6,127z
		 M100.8,113.4c0.7,1.9,1.1,3.7,2.1,5.1c3.4,5.3,8.5,8.7,13.6,12.2c4.7,3.3,9.1,2.8,13.7,0c2-1.3,2.6-3.5,2.2-5.4
		c-0.2-0.8-2.7-1.2-4.2-1.6c-0.5-0.1-1.2,0-1.7,0.2c-2.5,0.9-4-0.1-5.3-2.3c-0.9-1.6-2.3-2.9-3.7-4.5c-0.8,2.5-1.3,4.4-2,6.1
		c-0.2,0.6-1,1-1.5,1.5c-0.4-0.6-0.8-1.1-1.1-1.7c-0.5-1-0.7-2.2-1.2-3.2c-0.6-1-1.3-1.4-2.7-0.8c-3.1,1.6-3.7,1.1-3.7-2.4
		C105.3,112.9,105.3,112.9,100.8,113.4z M129.2,73.9c-0.8,1.1-1.4,2-2.2,2.7c-0.5,0.4-1.3,0.8-1.9,0.7c-3.3-0.6-5.2,1.5-4.5,4.9
		c0.9,4.1-0.4,7.6-3.1,10.5c-2.3,2.5-3,6.1-0.9,9.4c0.4-1.4,0.8-2.5,1.1-3.7c1.6,1.6,3.8,2.2,5.6,0.6c2.5-2.1,3.7-4.8,1.4-8.3
		c1.4,0,2.4-0.1,3.4,0c2.3,0.4,3.2-0.9,3.3-2.9C131.7,83,131.3,78.4,129.2,73.9z M114,89.8c2.2-3.3,2.5-6.3,1.5-9.6
		c-1.4-4.7-2.6-9.4-1.6-14.3c0.3-1.7,1.3-3.3,2.2-5.5c-1.6,0.5-3,0.7-4,1.4c-1.1,0.7-1.8,2-2.7,3c-0.1-2.1-0.8-3.9-3-4.5
		c-2.5-0.6-3.9,1-4.9,3c-1,2.1,0.4,7.4,2.2,8.8c3.8,2.8,6.4,6.4,8,10.8C112.6,85,113.2,87.2,114,89.8z M99.1,136.5
		c-1.5,8.4-3.1,16.7-4.6,24.9C104.4,159.7,104.9,141.6,99.1,136.5z M224.9,162.4c-1.3-1.1-2.1-1.8-2.9-2.5c-2.3-2-4.9-4.1-5.1-7.4
		c-0.1-2.8,0.2-5.8,0.8-8.6c2.6-11.2,14.5-20.2,24.3-19.2c1.5,0.2,2.1-0.6,1.8-2.5c-1.9,0.3-3.8,0.4-5.7,0.8
		c-9.8,2.2-17.6,6.6-20.8,17c-1.9,6.2-2.6,12.3,0.3,18.3c0.6,1.2,1.7,2.3,2.8,2.9C221.5,162.1,222.9,162,224.9,162.4z M257.2,162
		c0.2,0.2,0.4,0.3,0.6,0.5c0.7-0.9,1.4-1.8,2.1-2.7c5-6,7.5-12.8,5.6-20.7c-2.2-8.8-8.3-13.5-16.7-15.8c-0.5-0.1-1.3,0.5-1.9,0.8
		c0.4,0.5,0.7,1.4,1.1,1.5c5.5,0.8,9.5,3.9,12.8,8.3c2.1,2.9,4.5,5.9,4.1,9.6c-0.6,5.6-2,11-5.6,15.6C258.5,160,257.9,161,257.2,162
		z M139.4,151.9c2.2,3.5,4.1,6.7,6.2,9.8c0.4,0.6,1.1,1.2,1.7,1.2c1.1,0.1,2.3-0.1,3.2-0.6c0.4-0.3,0.4-1.9,0.1-2.5
		c-1.1-2-2.7-3.7-3.8-5.8c-0.8-1.5-1.7-2.3-3.4-2.2C142.2,152,141,151.9,139.4,151.9z M104.8,154.3c4.9-5.2,1.9-16.6-3.5-19.9
		C104.4,141.2,106,147.5,104.8,154.3z M55.5,141.7c0.4-0.8,0.8-1.2,0.8-1.7c0.9-6.7,5-11,10.7-14c1.7-0.9,1.8-2.1,1.4-3.7
		C62.2,124.3,55.2,134.5,55.5,141.7z M109.3,43.8c2-0.2,3.6,0,4.3-2.4c0.3-1,1.9-1.6,3-2.2c0.7-0.4,1.5-0.4,2.3-0.6
		c-0.3-0.9-0.5-1.6-0.7-2.2c-0.8,0.6-1.5,1.2-2.2,1.8c-1.2,0.8-2.6,1.4-3.8,2.3C111.2,41.3,110.4,42.5,109.3,43.8z M94.6,57.9
		c0.2,0.1,0.5,0.2,0.7,0.3c1-1.1,2.7-2.3,2.7-3.4c0-1-2-1.9-3.4-3.2C94.6,54.2,94.6,56.1,94.6,57.9z M95,49c3.6,1.6,5.1,0.3,5-3.9
		C98.2,46.5,96.8,47.6,95,49z M108,42.9c-1.3-0.9-2.4-1.7-3.6-2.6c0,0.3,0.1,0.5,0.1,0.8c-0.9,0.3-1.7,0.6-2.6,1
		c-0.5,0.2-1,0.6-1.4,0.9c0.1,0.1,0.2,0.3,0.4,0.4C103.3,43.3,105.6,43.1,108,42.9z"/>
</g>
</svg>
