<?xml version="1.0" encoding="utf-8"?>
<!-- Generator: Adobe Illustrator 19.1.0, SVG Export Plug-In . SVG Version: 6.00 Build 0)  -->
<svg version="1.1" id="Layer_1" xmlns="http://www.w3.org/2000/svg" xmlns:xlink="http://www.w3.org/1999/xlink" x="0px" y="0px"
	 viewBox="22.5 22.5 55 55" style="enable-background:new 22.5 22.5 55 55;" xml:space="preserve">
<style type="text/css">
	.st0{fill:none;stroke:#FFFFFF;stroke-width:2;stroke-linecap:round;stroke-miterlimit:10;}
</style>
<g>
	<circle class="st0" cx="50" cy="54.4" r="19.4"/>
	<g>
		<g>
			<line class="st0" x1="39.3" y1="41.7" x2="42.1" y2="45.1"/>
			<line class="st0" x1="33.7" y1="51.6" x2="38" y2="52.4"/>
			<line class="st0" x1="35.6" y1="63" x2="39.4" y2="60.8"/>
			<line class="st0" x1="44.5" y1="70.2" x2="46" y2="66.1"/>
		</g>
		<g>
			<line class="st0" x1="49.6" y1="37.9" x2="49.6" y2="42.6"/>
			<line class="st0" x1="60.7" y1="41.7" x2="57.9" y2="45.1"/>
			<line class="st0" x1="66.3" y1="51.6" x2="62" y2="52.4"/>
			<line class="st0" x1="64.4" y1="63" x2="60.6" y2="60.8"/>
			<line class="st0" x1="55.5" y1="70.2" x2="54" y2="66.1"/>
		</g>
	</g>
	<path class="st0" d="M51.2,55.9L51.2,55.9c0.6-0.6,0.9-1.3,0.9-2.1l2.7-5.6l-5.6,2.7c-0.7,0-1.4,0.3-2,0.8l-0.1,0.1l0,0l0,0
		c-1,1.1-0.9,2.8,0.1,3.9C48.3,56.9,50,56.9,51.2,55.9L51.2,55.9L51.2,55.9z"/>
	<path class="st0" d="M33.3,41.3L31,38.6c-0.5-0.6-0.6-1.4-0.2-1.8l4.3-3.6c0.4-0.4,1.2-0.2,1.8,0.5l2.3,2.7"/>
	<path class="st0" d="M52.8,32.2V34"/>
	<path class="st0" d="M47.6,34v-1.8"/>
	<path class="st0" d="M66.6,41.3l2.3-2.7c0.5-0.6,0.6-1.4,0.2-1.8l-4.3-3.6c-0.4-0.4-1.2-0.2-1.8,0.5l-2.3,2.7"/>
	<path class="st0" d="M52.6,31.9h-4.7c-0.8,0-1.5-0.7-1.5-1.5v-2.6c0-0.8,0.7-1.5,1.5-1.5h4.7c0.8,0,1.5,0.7,1.5,1.5v2.6
		C54,31.2,53.4,31.9,52.6,31.9z"/>
</g>
</svg>
