<?xml version="1.0" encoding="utf-8"?>
<!-- Generator: Adobe Illustrator 19.1.0, SVG Export Plug-In . SVG Version: 6.00 Build 0)  -->
<svg version="1.1" id="Layer_1" xmlns="http://www.w3.org/2000/svg" xmlns:xlink="http://www.w3.org/1999/xlink" x="0px" y="0px"
	 viewBox="0 0 55 55" style="enable-background:new 0 0 55 55;" xml:space="preserve">
<style type="text/css">
	.st0{fill:none;stroke:#FFFFFF;stroke-width:2;stroke-miterlimit:10;}
</style>
<g>
	<g>
		<path class="st0" d="M15.7,40.9h-3.9c-0.8,0-1.5-0.7-1.5-1.5V15.6c0-0.8,0.7-1.5,1.5-1.5h3.9c0.8,0,1.5,0.7,1.5,1.5v23.8
			C17.2,40.2,16.6,40.9,15.7,40.9z"/>
		<path class="st0" d="M9.2,37.9H6c-0.7,0-1.3-0.5-1.3-1.1V18.2c0-0.6,0.6-1.1,1.3-1.1h3.1"/>
		<path class="st0" d="M3.3,34.8H1.9c-0.4,0-0.8-0.3-0.8-0.7V20.9c0-0.4,0.3-0.7,0.8-0.7h1.3"/>
	</g>
	<g>
		<path class="st0" d="M39.3,40.9h3.9c0.8,0,1.5-0.7,1.5-1.5V15.6c0-0.8-0.7-1.5-1.5-1.5h-3.9c-0.8,0-1.5,0.7-1.5,1.5v23.8
			C37.8,40.2,38.4,40.9,39.3,40.9z"/>
		<path class="st0" d="M45.8,37.9H49c0.7,0,1.3-0.5,1.3-1.1V18.2c0-0.6-0.6-1.1-1.3-1.1h-3.1"/>
		<path class="st0" d="M51.7,34.8h1.3c0.4,0,0.8-0.3,0.8-0.7V20.9c0-0.4-0.3-0.7-0.8-0.7h-1.3"/>
	</g>
	<g>
		<path class="st0" d="M18.8,24.9h17.3"/>
		<path class="st0" d="M36.1,30.1H18.8"/>
	</g>
</g>
</svg>
