<?xml version="1.0" encoding="utf-8"?>
<!-- Generator: Adobe Illustrator 19.1.0, SVG Export Plug-In . SVG Version: 6.00 Build 0)  -->
<svg version="1.1" id="Layer_1" xmlns="http://www.w3.org/2000/svg" xmlns:xlink="http://www.w3.org/1999/xlink" x="0px" y="0px"
	 viewBox="22.5 24 55 52" style="enable-background:new 22.5 24 55 52;" xml:space="preserve">
<style type="text/css">
	.st0{fill:none;stroke:#FFFFFF;stroke-width:2;stroke-miterlimit:10;}
</style>
<g>
	<g>
		<path class="st0" d="M68.8,61c0-10.4-8.4-18.7-18.7-18.7S31.3,50.6,31.3,61c0,5.6,2.5,10.7,6.4,14h24.7
			C66.3,71.7,68.8,66.6,68.8,61z"/>
		<path class="st0" d="M37.6,44.2c-0.3-1-0.6-2-0.6-3c0-6,6-10.9,12.7-10.9s12.8,4.9,12.8,10.9c0,1-0.2,2.1-0.5,3"/>
		<path class="st0" d="M66.8,48c1.2-2.1,1.8-4.4,1.8-6.9C68.7,32.2,60,25,49.9,25s-18.7,7.2-18.7,16.1c0,2.5,0.7,4.8,1.9,6.9"/>
	</g>
</g>
</svg>
