<?xml version="1.0" encoding="utf-8"?>
<!-- Generator: Adobe Illustrator 19.1.0, SVG Export Plug-In . SVG Version: 6.00 Build 0)  -->
<svg version="1.1" id="Layer_1" xmlns="http://www.w3.org/2000/svg" xmlns:xlink="http://www.w3.org/1999/xlink" x="0px" y="0px"
	 viewBox="0 0 100 100" style="enable-background:new 0 0 100 100;" xml:space="preserve">
<style type="text/css">
	.st0{fill:none;stroke:#000000;stroke-width:2;stroke-miterlimit:10;}
</style>
<g>
	<path class="st0" d="M85.1,70.4c0-19.2-15.6-34.6-34.8-34.6S15.5,51.2,15.5,70.4c0,10.4,4.6,19.9,11.8,25.9h45.9
		C80.5,90.2,85.1,80.8,85.1,70.4z"/>
	<path class="st0" d="M27.2,39.2c-0.6-1.8-1.1-3.7-1.1-5.6c0-11.2,11.1-20.3,23.6-20.3s23.7,9.1,23.7,20.3c0,1.9-0.4,3.8-1,5.6"/>
	<path class="st0" d="M81.3,46.4c2.2-3.9,3.4-8.2,3.4-12.8c0-16.5-16.2-29.8-34.9-29.8S14.9,17.1,14.9,33.6c0,4.6,1.3,8.9,3.5,12.8"
		/>
</g>
</svg>
