<?xml version="1.0" encoding="utf-8"?>
<!-- Generator: Adobe Illustrator 19.1.0, SVG Export Plug-In . SVG Version: 6.00 Build 0)  -->
<svg version="1.1" id="Layer_1" xmlns="http://www.w3.org/2000/svg" xmlns:xlink="http://www.w3.org/1999/xlink" x="0px" y="0px"
	 viewBox="38 -18 208.3 118" style="enable-background:new 38 -18 208.3 118;" xml:space="preserve">
<style type="text/css">
	.st0{fill:none;stroke:#FFE000;stroke-width:2.3164;stroke-miterlimit:10;}
</style>
<g>
	<g>
		<path class="st0" d="M99.8,89.2H85.9c-2.9,0-5.3-2.4-5.3-5.3V-1.9c0-2.9,2.4-5.3,5.3-5.3h13.9c2.9,0,5.3,2.4,5.3,5.3v85.7
			C105.1,86.7,102.7,89.2,99.8,89.2z"/>
		<path class="st0" d="M76.1,78.4H64.8c-2.5,0-4.6-1.7-4.6-3.9V7.5c0-2.2,2.1-3.9,4.6-3.9h11.2"/>
		<path class="st0" d="M54.9,67.3h-4.7c-1.5,0-2.8-1-2.8-2.3V17c0-1.3,1.3-2.3,2.8-2.3h4.7"/>
	</g>
	<g>
		<path class="st0" d="M184.5,89.2h13.9c2.9,0,5.3-2.4,5.3-5.3V-1.9c0-2.9-2.4-5.3-5.3-5.3h-13.9c-2.9,0-5.3,2.4-5.3,5.3v85.7
			C179.1,86.7,181.6,89.2,184.5,89.2z"/>
		<path class="st0" d="M208.2,78.4h11.2c2.5,0,4.6-1.7,4.6-3.9V7.5c0-2.2-2.1-3.9-4.6-3.9h-11.2"/>
		<path class="st0" d="M229.4,67.3h4.7c1.5,0,2.8-1,2.8-2.3V17c0-1.3-1.3-2.3-2.8-2.3h-4.7"/>
	</g>
	<g>
		<path class="st0" d="M110.8,31.5h62.3"/>
		<path class="st0" d="M173.2,50.4h-62.4"/>
	</g>
</g>
</svg>
