<?xml version="1.0" encoding="utf-8"?>
<!-- Generator: Adobe Illustrator 19.1.0, SVG Export Plug-In . SVG Version: 6.00 Build 0)  -->
<svg version="1.1" id="Layer_1" xmlns="http://www.w3.org/2000/svg" xmlns:xlink="http://www.w3.org/1999/xlink" x="0px" y="0px"
	 viewBox="0 0 100 100" style="enable-background:new 0 0 100 100;" xml:space="preserve">
<style type="text/css">
	.st0{fill:none;stroke:#C03622;stroke-width:2;stroke-linecap:round;stroke-miterlimit:10;}
</style>
<g>
	<circle class="st0" cx="49.8" cy="58.1" r="37.8"/>
	<g>
		<g>
			<line class="st0" x1="28.9" y1="33.4" x2="34.4" y2="40"/>
			<line class="st0" x1="17.9" y1="52.6" x2="26.4" y2="54.1"/>
			<line class="st0" x1="21.6" y1="74.8" x2="29.1" y2="70.5"/>
			<line class="st0" x1="39" y1="89" x2="41.9" y2="80.9"/>
		</g>
		<g>
			<line class="st0" x1="49" y1="26" x2="49" y2="35"/>
			<line class="st0" x1="70.6" y1="33.4" x2="65" y2="40"/>
			<line class="st0" x1="81.5" y1="52.6" x2="73" y2="54.1"/>
			<line class="st0" x1="77.8" y1="74.8" x2="70.4" y2="70.5"/>
			<line class="st0" x1="60.5" y1="89" x2="57.5" y2="80.9"/>
		</g>
	</g>
	<path class="st0" d="M52,61c0.1-0.1,0.2-0.2,0.3-0.3c1.1-1.1,1.6-2.4,1.6-3.8l5.2-11l-11,5.2c-1.4,0-2.7,0.6-3.8,1.6
		c-0.1,0.1-0.2,0.2-0.3,0.3l-0.1,0l0,0c-1.9,2.2-1.8,5.5,0.3,7.6C46.5,62.9,49.8,63,52,61L52,61L52,61z"/>
	<path class="st0" d="M17.2,32.5l-4.4-5.3c-1-1.2-1.2-2.8-0.3-3.5l8.3-7c0.9-0.7,2.4-0.3,3.4,0.9l4.4,5.3"/>
	<path class="st0" d="M55.3,14.7l0,3.5"/>
	<path class="st0" d="M45.1,18.3l0-3.5"/>
	<path class="st0" d="M82,32.5l4.4-5.3c1-1.2,1.2-2.8,0.3-3.5l-8.3-7C77.6,16,76,16.4,75,17.7l-4.4,5.3"/>
	<path class="st0" d="M54.7,14.2h-9.2c-1.6,0-2.8-1.3-2.8-2.8V6.3c0-1.6,1.3-2.8,2.8-2.8h9.2c1.6,0,2.8,1.3,2.8,2.8v5.1
		C57.5,13,56.3,14.2,54.7,14.2z"/>
</g>
</svg>
